<svg width="63" height="41" viewBox="0 0 63 41" fill="none" xmlns="http://www.w3.org/2000/svg">
<path fill-rule="evenodd" clip-rule="evenodd" d="M45.0771 20.806C45.0771 24.9544 45.0771 28.3682 44.8558 30.1832C44.6788 31.4363 44.4575 32.3871 43.5726 32.5599C43.1744 32.6463 42.6434 32.7328 42.2452 32.7328C41.9797 32.7328 41.8912 32.8624 41.8912 32.992C41.8912 33.2513 42.1124 33.3377 42.5991 33.3377C43.9266 33.3377 46.7142 33.2081 46.847 33.2081C47.0682 33.2081 49.8558 33.3377 52.2894 33.3377C52.7761 33.3377 52.9974 33.2081 52.9974 32.992C52.9974 32.8624 52.9089 32.7328 52.6434 32.7328C52.2452 32.7328 51.2717 32.6463 50.6523 32.5599C49.3248 32.3871 49.0593 31.4363 48.9266 30.1832C48.7054 28.3682 48.7054 24.9544 48.7054 20.806V3.04534C48.7054 2.61319 48.7939 2.31076 49.0593 2.22431C49.4576 2.05141 50.2098 1.96506 50.9619 1.96506C51.9797 1.96506 54.6788 1.79216 57.024 4.12571C59.3691 6.45917 59.5018 9.3545 59.5018 10.7805C59.5018 14.7561 56.139 17.8242 51.8469 17.8242C50.9177 17.8242 50.6523 17.8675 50.6523 18.2132C50.6523 18.4293 50.9177 18.5156 51.139 18.5156C51.3602 18.5589 51.8469 18.5589 52.0682 18.5589C58.3514 18.5589 62.9532 14.4104 62.9532 8.27412C62.9532 5.98384 61.7142 4.03926 60.7408 3.13179C60.0328 2.48356 58.0416 0.66861 52.5107 0.66861C50.4752 0.66861 47.9089 0.798235 46.9355 0.798235C46.5815 0.798235 43.9266 0.66861 41.9355 0.66861C41.4488 0.66861 41.2275 0.75506 41.2275 1.01431C41.2275 1.18721 41.4045 1.27356 41.5815 1.27356C41.9797 1.27356 42.732 1.31684 43.0859 1.40329C44.5461 1.70571 44.9 2.39711 44.9886 3.86637C45.0771 5.24917 45.0771 6.45917 45.0771 13.2005V20.806Z" fill="white"/>
<path fill-rule="evenodd" clip-rule="evenodd" d="M2.92188 14.646C2.92188 14.5467 2.92323 14.4488 2.92438 14.3505C11.2591 16.6986 20.7673 11.2685 29.6887 14.3505C29.7455 15.028 29.7757 15.7272 29.7757 16.4495C29.7757 29.57 21.3951 31.9146 17.3401 31.9146C9.22976 31.9146 2.92188 25.1515 2.92188 14.646Z" fill="#00A0E3"/>
<path fill-rule="evenodd" clip-rule="evenodd" d="M30.027 35.3767C36.8208 39.1116 42.2307 41 47.3051 41C53.5118 41 58.2087 39.1955 60.5991 38.1044C60.8507 37.9785 60.9346 37.8526 60.9346 37.6848C60.9346 37.5589 60.8507 37.433 60.683 37.433C60.5572 37.433 60.3475 37.5169 60.0959 37.6008C57.2022 38.7759 53.9311 39.2375 51.8343 39.2375C49.7374 39.2375 43.363 39.0276 34.1788 34.2856L25.5817 29.8373C28.3495 28.0327 33.0045 23.1228 33.0045 15.737C33.0045 6.00098 25.9591 0 16.5232 0C4.94858 0 0 9.61001 0 16.4084C0 23.9621 4.78088 32.9007 16.3974 32.9007C18.6201 32.9007 21.4718 32.2713 22.9815 31.4739L30.027 35.3767V35.3767ZM3.9841 15.2333C3.9841 6.04301 9.22618 1.42682 16.2297 1.42682C22.8557 1.42682 28.9786 6.84032 28.9786 16.9119C28.9786 29.1238 21.1783 31.306 17.4039 31.306C9.85526 31.306 3.9841 25.0113 3.9841 15.2333V15.2333Z" fill="white"/>
</svg>
