<svg width="264" height="54" viewBox="0 0 264 54" fill="none" xmlns="http://www.w3.org/2000/svg">
<path fill-rule="evenodd" clip-rule="evenodd" d="M58.8649 27.17C58.8649 32.5873 58.8649 37.0453 58.576 39.4154C58.3448 41.0519 58.0559 42.2935 56.9003 42.5191C56.3802 42.632 55.6869 42.7449 55.1668 42.7449C54.8201 42.7449 54.7045 42.9142 54.7045 43.0835C54.7045 43.422 54.9934 43.5349 55.629 43.5349C57.3626 43.5349 61.0028 43.3656 61.1762 43.3656C61.4651 43.3656 65.1053 43.5349 68.2834 43.5349C68.9189 43.5349 69.2079 43.3656 69.2079 43.0835C69.2079 42.9142 69.0923 42.7449 68.7456 42.7449C68.2256 42.7449 66.9543 42.632 66.1454 42.5191C64.4119 42.2935 64.0653 41.0519 63.8919 39.4154C63.603 37.0453 63.603 32.5873 63.603 27.17V3.97676C63.603 3.41242 63.7186 3.01749 64.0652 2.9046C64.5854 2.67881 65.5676 2.56605 66.5498 2.56605C67.8788 2.56605 71.4035 2.34027 74.4661 5.3876C77.5285 8.4348 77.7018 12.2157 77.7018 14.0779C77.7018 19.2695 73.3104 23.2761 67.7055 23.2761C66.4921 23.2761 66.1454 23.3326 66.1454 23.7841C66.1454 24.0663 66.4921 24.179 66.781 24.179C67.0699 24.2355 67.7055 24.2355 67.9944 24.2355C76.1995 24.2355 82.2089 18.8181 82.2089 10.8049C82.2089 7.81408 80.5909 5.2747 79.3198 4.08965C78.3953 3.24315 75.795 0.873047 68.5723 0.873047C65.9143 0.873047 62.5629 1.04232 61.2918 1.04232C60.8295 1.04232 57.3626 0.873047 54.7624 0.873047C54.1268 0.873047 53.8379 0.985941 53.8379 1.32449C53.8379 1.55028 54.069 1.66304 54.3001 1.66304C54.8201 1.66304 55.8025 1.71955 56.2647 1.83244C58.1715 2.22737 58.6337 3.13026 58.7493 5.04892C58.8649 6.85469 58.8649 8.4348 58.8649 17.2381V27.17Z" fill="white"/>
<path fill-rule="evenodd" clip-rule="evenodd" d="M3.81641 19.1266C3.81641 18.997 3.81817 18.8691 3.81968 18.7407C14.7038 21.807 27.1203 14.716 38.7706 18.7407C38.8448 19.6255 38.8842 20.5385 38.8842 21.4818C38.8842 38.6155 27.9402 41.6773 22.6449 41.6773C12.0537 41.6773 3.81641 32.8455 3.81641 19.1266Z" fill="#00A0E3"> 
        <animate 
            attributeType="CSS" 
            attributeName="d" 
            from="m3.81641,19.1257c0,-0.1297 0.00176,-0.2576 0.00327,-0.386c10.88412,3.0664 23.30062,-4.0247 34.95092,0c0.0742,0.8848 0.1136,1.7978 0.1136,2.7411c0,17.1337 -10.944,20.1955 -16.2393,20.1955c-10.5912,0 -18.82849,-8.8318 -18.82849,-22.5506l0,0z" 
            to="m3.81641,19.1257c0,-0.1297 0.00176,-0.2576 0.00327,-0.386c10.88412,3.0664 36.89032,-22.22977 34.95092,0c0.0742,0.8848 0.1136,1.7978 0.1136,2.7411c0,17.1337 -10.944,20.1955 -16.2393,20.1955c-10.5912,0 -18.82849,-8.8318 -18.82849,-22.5506l0,0z" 
            dur="7s" 
            values="
                m3.81641,19.1257c0,-0.1297 0.00176,-0.2576 0.00327,-0.386c10.88412,3.0664 23.30062,-4.0247 34.95092,0c0.0742,0.8848 0.1136,1.7978 0.1136,2.7411c0,17.1337 -10.944,20.1955 -16.2393,20.1955c-10.5912,0 -18.82849,-8.8318 -18.82849,-22.5506l0,0z; 
                m3.81641,19.1257c0,-0.1297 0.00176,-0.2576 0.00327,-0.386c10.88412,3.0664 36.89032,-22.22977 34.95092,0c0.0742,0.8848 0.1136,1.7978 0.1136,2.7411c0,17.1337 -10.944,20.1955 -16.2393,20.1955c-10.5912,0 -18.82849,-8.8318 -18.82849,-22.5506l0,0z; 
                m3.81641,19.1257c0,-0.1297 0.00176,-0.2576 0.00327,-0.386c10.88412,3.0664 26.121123,8.795772 34.95092,0c0.0742,0.8848 0.1136,1.7978 0.1136,2.7411c0,17.1337 -10.944,20.1955 -16.2393,20.1955c-10.5912,0 -18.82849,-8.8318 -18.82849,-22.5506l0,0z; 
                m3.81641,19.1257c0,-0.1297 0.00176,-0.2576 0.00327,-0.386c10.88412,3.0664 23.30062,-4.0247 34.95092,0c0.0742,0.8848 0.1136,1.7978 0.1136,2.7411c0,17.1337 -10.944,20.1955 -16.2393,20.1955c-10.5912,0 -18.82849,-8.8318 -18.82849,-22.5506l0,0z"
            keyTimes="0;0.35;0.65;1"
            repeatCount="indefinite"
        />
    </path>
<path fill-rule="evenodd" clip-rule="evenodd" d="M39.2115 46.1975C48.0834 51.0749 55.148 53.5409 61.7746 53.5409C69.8798 53.5409 76.0134 51.1845 79.135 49.7597C79.4635 49.5953 79.5731 49.4308 79.5731 49.2116C79.5731 49.0472 79.4635 48.8829 79.2445 48.8829C79.0803 48.8829 78.8064 48.9924 78.4778 49.102C74.699 50.6365 70.4273 51.2393 67.6891 51.2393C64.9509 51.2393 56.6267 50.9652 44.6333 44.7727L33.4065 38.9638C37.021 36.6073 43.0998 30.1956 43.0998 20.5505C43.0998 7.83654 33.8993 0 21.5773 0C6.46223 0 0 12.5495 0 21.4273C0 31.2915 6.24324 42.9642 21.413 42.9642C24.3156 42.9642 28.0395 42.1423 30.0111 41.1011L39.2115 46.1975V46.1975ZM5.20274 19.8929C5.20274 7.89142 12.0482 1.86325 21.194 1.86325C29.8468 1.86325 37.8425 8.93261 37.8425 22.0849C37.8425 38.0321 27.6562 40.8818 22.7273 40.8818C12.8698 40.8818 5.20274 32.6616 5.20274 19.8929V19.8929Z" fill="white"/>
<path fill-rule="evenodd" clip-rule="evenodd" d="M99.6327 31.1385C99.6327 34.5953 99.6327 37.4401 99.4526 38.9523C99.3089 39.9963 99.1288 40.7886 98.4093 40.9324C98.0855 41.0043 97.6535 41.0767 97.3297 41.0767C97.1136 41.0767 97.0418 41.1846 97.0418 41.2924C97.0418 41.509 97.2219 41.5809 97.6175 41.5809C98.6972 41.5809 100.784 41.4726 101.072 41.4726C101.36 41.4726 103.447 41.5809 105.21 41.5809C105.606 41.5809 105.786 41.4726 105.786 41.2924C105.786 41.1846 105.714 41.0767 105.498 41.0767C105.174 41.0767 104.598 41.0043 104.095 40.9324C103.015 40.7886 102.799 39.9963 102.691 38.9523C102.511 37.4401 102.511 34.5953 102.511 31.1385V27.6102H102.691C104.418 29.7345 112.047 37.9798 113.666 39.3123C115.213 40.5365 116.113 41.3288 118.02 41.509C118.811 41.5809 119.495 41.5809 120.503 41.5809H122.338C122.949 41.5809 123.13 41.4726 123.13 41.2924C123.13 41.1486 122.914 41.0767 122.662 41.0767C122.41 41.0767 121.366 41.0043 120.431 40.6084C118.704 39.8884 118.092 39.3123 115.069 36.5035C113.594 35.1355 106.11 27.394 105.174 26.3496C105.93 25.4494 112.191 19.3285 113.09 18.4643C114.71 16.916 115.501 16.0158 116.976 15.3678C117.696 15.0433 118.452 14.8636 118.991 14.8636C119.279 14.8636 119.351 14.7917 119.351 14.6115C119.351 14.4313 119.207 14.3594 118.811 14.3594C117.912 14.3594 115.537 14.4672 115.357 14.4672C114.494 14.4672 113.378 14.3594 112.659 14.3594C112.407 14.3594 112.227 14.4313 112.227 14.6115C112.227 14.7553 112.371 14.8276 112.551 14.8996C112.839 15.0074 113.018 15.2236 113.018 15.6559C113.018 16.2676 112.083 17.2037 111.075 18.2481C109.78 19.6525 103.267 26.2777 102.655 26.9617H102.511V24.8014C102.511 19.1842 102.511 18.1762 102.583 17.0239C102.655 15.7637 102.943 15.1517 103.914 14.9715C104.346 14.8995 104.563 14.8636 104.814 14.8636C104.958 14.8636 105.102 14.7917 105.102 14.6474C105.102 14.4313 104.922 14.3594 104.526 14.3594C103.447 14.3594 101.36 14.4672 101.036 14.4672C100.82 14.4672 98.6972 14.3594 97.0777 14.3594C96.682 14.3594 96.502 14.4313 96.502 14.6474C96.502 14.7917 96.6461 14.8636 96.7898 14.8636C97.1136 14.8636 97.7257 14.8995 98.0132 14.9715C99.2011 15.2236 99.4889 15.7997 99.5608 17.0239C99.6327 18.1762 99.6327 19.1842 99.6327 24.8014V31.1385V31.1385Z" fill="white"/>
<path fill-rule="evenodd" clip-rule="evenodd" d="M159.07 31.0833C159.07 34.5288 159.07 37.3642 158.89 38.8715C158.747 39.9121 158.567 40.7017 157.85 40.8451C157.528 40.9168 157.097 40.9889 156.774 40.9889C156.559 40.9889 156.487 41.0964 156.487 41.2039C156.487 41.4198 156.667 41.4914 157.061 41.4914C158.137 41.4914 160.396 41.3835 160.504 41.3835C160.683 41.3835 162.943 41.4914 164.916 41.4914C165.31 41.4914 165.489 41.3835 165.489 41.2039C165.489 41.0964 165.417 40.9889 165.203 40.9889C164.879 40.9889 164.091 40.9168 163.588 40.8451C162.512 40.7017 162.297 39.9121 162.19 38.8715C162.011 37.3642 162.011 34.5288 162.011 31.0833V16.3334C162.011 15.9741 162.082 15.7233 162.298 15.6516C162.62 15.5079 163.23 15.4362 163.84 15.4362C164.665 15.4362 166.852 15.2924 168.753 17.2306C170.654 19.1683 170.761 21.5728 170.761 22.7572C170.761 26.0593 168.036 28.6071 164.557 28.6071C163.804 28.6071 163.588 28.643 163.588 28.9301C163.588 29.1097 163.804 29.1814 163.983 29.1814C164.162 29.2172 164.557 29.2172 164.736 29.2172C169.829 29.2172 173.559 25.7722 173.559 20.6756C173.559 18.7737 172.555 17.1589 171.766 16.4051C171.192 15.8667 169.578 14.3594 165.095 14.3594C163.445 14.3594 161.365 14.4669 160.576 14.4669C160.289 14.4669 158.137 14.3594 156.523 14.3594C156.129 14.3594 155.949 14.431 155.949 14.6465C155.949 14.7903 156.093 14.8619 156.236 14.8619C156.559 14.8619 157.169 14.8978 157.455 14.9694C158.639 15.2207 158.926 15.795 158.998 17.0151C159.07 18.1636 159.07 19.1684 159.07 24.7671V31.0833Z" fill="white"/>
<path fill-rule="evenodd" clip-rule="evenodd" d="M126.235 29.8554C126.235 35 127.573 37.4664 129.299 39.1226C131.799 41.4834 135.356 41.6242 136.553 41.6242C138.63 41.6242 141.271 41.2719 143.807 39.0167C146.623 36.5151 147.046 32.2866 147.046 28.481V24.7107C147.046 19.2138 147.046 18.2273 147.117 17.0997C147.187 15.8665 147.469 15.3027 148.419 15.0912C148.842 15.0208 149.053 14.9856 149.3 14.9856C149.441 14.9856 149.582 14.9152 149.582 14.7741C149.582 14.5625 149.405 14.4922 149.018 14.4922C147.962 14.4922 146.307 14.5977 146.06 14.5977C145.849 14.5977 143.912 14.4922 142.328 14.4922C141.94 14.4922 141.764 14.5625 141.764 14.7741C141.764 14.9152 141.905 14.9856 142.046 14.9856C142.363 14.9856 142.962 15.0208 143.243 15.0912C144.405 15.3379 144.687 15.9017 144.757 17.0997C144.828 18.2273 144.828 19.2138 144.828 24.7107V29.1152C144.828 32.7448 144.405 35.7398 142.785 37.7483C141.518 39.2634 139.405 40.2855 137.257 40.2855C135.25 40.2855 133.665 39.9684 131.94 38.3473C130.425 36.9026 129.299 34.7181 129.299 29.6438V24.7107C129.299 19.2138 129.299 18.2273 129.369 17.0997C129.44 15.8665 129.721 15.2323 130.672 15.0912C131.095 15.0208 131.306 14.9856 131.553 14.9856C131.693 14.9856 131.834 14.9152 131.834 14.7741C131.834 14.5625 131.658 14.4922 131.271 14.4922C130.214 14.4922 128.102 14.5977 127.785 14.5977C127.468 14.5977 125.32 14.4922 123.735 14.4922C123.348 14.4922 123.172 14.5625 123.172 14.7741C123.172 14.9152 123.313 14.9856 123.454 14.9856C123.77 14.9856 124.369 15.0208 124.651 15.0912C125.813 15.3379 126.095 15.9017 126.165 17.0997C126.235 18.2273 126.235 19.2138 126.235 24.7107V29.8554V29.8554Z" fill="white"/>
<path fill-rule="evenodd" clip-rule="evenodd" d="M255.581 41.6242C257.448 41.6242 259.316 41.2091 260.803 40.1708C263.189 38.475 263.742 35.8449 263.742 34.426C263.742 31.6573 262.774 29.5119 258.693 26.2935L257.725 25.532C254.405 22.9365 253.506 21.6904 253.506 19.7181C253.506 17.1918 255.373 15.7038 257.76 15.7038C260.941 15.7038 261.875 17.1572 262.083 17.5378C262.29 17.9183 262.497 18.853 262.532 19.2681C262.566 19.5449 262.601 19.7181 262.809 19.7181C262.982 19.7181 263.051 19.4759 263.051 18.9221C263.051 16.5689 263.189 15.4269 263.189 15.2537C263.189 15.0805 263.12 15.0114 262.843 15.0114C262.566 15.0114 262.29 14.9768 261.633 14.8382C260.768 14.6308 259.765 14.4922 258.417 14.4922C254.024 14.4922 251.258 17.0186 251.258 20.7216C251.258 23.0748 252.088 25.2206 255.754 28.2316L257.31 29.5119C260.284 31.9692 261.287 33.3531 261.287 35.7412C261.287 37.9558 259.662 40.3439 256.341 40.3439C254.024 40.3439 251.742 39.3751 251.223 36.8142C251.119 36.3295 251.119 35.8449 251.119 35.5335C251.119 35.2566 251.085 35.153 250.877 35.153C250.704 35.153 250.635 35.3257 250.6 35.7063C250.566 36.26 250.428 37.6448 250.428 39.3751C250.428 40.3094 250.462 40.4476 250.946 40.6899C252.365 41.3819 253.955 41.6242 255.581 41.6242V41.6242Z" fill="white"/>
<path fill-rule="evenodd" clip-rule="evenodd" d="M185.669 24.8999C185.669 19.3012 185.669 18.2964 185.741 17.148C185.813 15.8919 186.1 15.2819 187.068 15.1023C187.499 15.0306 187.713 14.9947 187.965 14.9947C188.108 14.9947 188.252 14.9231 188.252 14.7793C188.252 14.5638 188.072 14.4922 187.678 14.4922C186.602 14.4922 184.342 14.5997 184.163 14.5997C183.984 14.5997 181.724 14.4922 180.541 14.4922C180.146 14.4922 179.967 14.5638 179.967 14.7793C179.967 14.9231 180.11 14.9947 180.254 14.9947C180.505 14.9947 180.971 15.0306 181.366 15.1381C182.155 15.3177 182.513 15.9278 182.585 17.148C182.657 18.2964 182.657 19.3012 182.657 24.8999V31.2161C182.657 34.6616 182.657 37.497 182.478 39.0043C182.334 40.0449 182.155 40.8346 181.437 40.9779C181.115 41.0496 180.684 41.1217 180.361 41.1217C180.146 41.1217 180.074 41.2292 180.074 41.3367C180.074 41.5526 180.254 41.6242 180.648 41.6242C181.724 41.6242 183.984 41.5163 184.163 41.5163C184.342 41.5163 186.602 41.6242 188.574 41.6242C188.969 41.6242 189.148 41.5163 189.148 41.3367C189.148 41.2292 189.077 41.1217 188.861 41.1217C188.538 41.1217 187.749 41.0496 187.248 40.9779C186.171 40.8346 185.956 40.0449 185.849 39.0043C185.669 37.497 185.669 34.6616 185.669 31.2161V24.8999V24.8999Z" fill="white"/>
<path fill-rule="evenodd" clip-rule="evenodd" d="M201.977 31.2947C201.977 34.6469 201.977 37.4056 201.803 38.8721C201.663 39.8845 201.489 40.6528 200.791 40.7923C200.477 40.862 200.058 40.9321 199.744 40.9321C199.535 40.9321 199.465 41.0368 199.465 41.1414C199.465 41.3514 199.64 41.4211 200.023 41.4211C200.547 41.4211 201.349 41.3514 202.047 41.3514C202.78 41.3161 203.373 41.3161 203.443 41.3161C203.583 41.3161 204.56 41.3514 205.572 41.4211C206.583 41.456 207.7 41.5257 208.084 41.5257C214.051 41.5257 216.982 37.6497 216.982 33.9139C216.982 29.8282 213.527 27.3493 210.945 26.5461C212.585 24.8352 214.225 23.1242 214.225 20.261C214.225 18.5151 212.969 15.0234 207.246 15.0234C205.641 15.0234 204.28 15.128 203.443 15.128C203.268 15.128 201.07 15.0234 199.5 15.0234C199.116 15.0234 198.941 15.0932 198.941 15.3028C198.941 15.4427 199.081 15.5124 199.221 15.5124C199.535 15.5124 200.128 15.5473 200.407 15.617C201.559 15.8615 201.838 16.4202 201.908 17.6073C201.977 18.7247 201.977 19.7023 201.977 25.1494V31.2947V31.2947ZM204.769 16.56C204.769 16.3504 204.874 16.2454 205.188 16.1757C205.746 16.0362 206.479 16.0013 206.863 16.0013C210.282 16.0013 211.573 19.1087 211.573 22.0068C211.573 23.4384 211.05 24.6957 210.317 25.5334C209.584 26.3714 209.096 26.4415 207.142 26.4415C205.851 26.4415 205.222 26.3366 205.013 26.3017C204.839 26.232 204.769 26.1622 204.769 25.9177V16.56V16.56ZM204.769 27.6287C204.769 27.4539 204.839 27.3842 204.978 27.3842C205.502 27.3842 207.246 27.3842 207.7 27.454C208.538 27.5586 209.41 27.6636 210.596 28.4667C213.283 30.3172 213.981 33.3552 213.981 35.4501C213.981 39.3955 210.945 40.4083 209.061 40.4083C208.433 40.4083 206.932 40.3386 205.99 39.8845C204.908 39.3611 204.908 38.8721 204.804 37.1611C204.769 36.6373 204.769 32.3075 204.769 29.619V27.6287V27.6287Z" fill="white"/>
<path fill-rule="evenodd" clip-rule="evenodd" d="M223.939 37.748C223.305 39.5098 222.601 40.8489 220.981 41.06C220.699 41.0956 220.206 41.1308 219.96 41.1308C219.784 41.1308 219.643 41.2012 219.643 41.3419C219.643 41.5539 219.854 41.6242 220.312 41.6242C221.967 41.6242 223.903 41.5183 224.291 41.5183C224.678 41.5183 226.192 41.6242 227.037 41.6242C227.354 41.6242 227.566 41.5539 227.566 41.3419C227.566 41.2012 227.46 41.1308 227.214 41.1308H226.861C226.263 41.1308 225.523 40.8137 225.523 40.1087C225.523 39.4746 225.699 38.6289 226.016 37.748L228.129 31.5114C228.199 31.335 228.305 31.2295 228.481 31.2295H236.052C236.228 31.2295 236.298 31.2999 236.369 31.441L239.643 40.1087C239.855 40.6725 239.643 40.9896 239.432 41.06C239.291 41.0956 239.186 41.166 239.186 41.3071C239.186 41.5182 239.573 41.5183 240.242 41.5539C242.672 41.6242 245.242 41.6242 245.77 41.6242C246.158 41.6242 246.475 41.5539 246.475 41.3419C246.475 41.166 246.334 41.1308 246.122 41.1308C245.77 41.1308 245.242 41.0956 244.714 40.9193C243.974 40.7078 242.954 40.144 241.686 37.0083C239.538 31.6522 234.009 17.0997 233.481 15.7609C233.058 14.6685 232.918 14.4922 232.706 14.4922C232.495 14.4922 232.354 14.7037 231.932 15.8665L223.939 37.748V37.748ZM228.868 29.9611C228.763 29.9611 228.693 29.8904 228.763 29.7144L231.861 20.2006C232.037 19.672 232.214 19.672 232.39 20.2006L235.735 29.7144C235.77 29.8552 235.77 29.9611 235.594 29.9611H228.868Z" fill="white"/>
</svg>
