<svg width="198" height="41" viewBox="0 0 198 41" fill="none" xmlns="http://www.w3.org/2000/svg">
<path fill-rule="evenodd" clip-rule="evenodd" d="M44.1492 20.3775C44.1492 24.4405 44.1492 27.784 43.9325 29.5616C43.7591 30.7889 43.5424 31.7201 42.6757 31.8893C42.2856 31.974 41.7657 32.0587 41.3756 32.0587C41.1156 32.0587 41.0289 32.1856 41.0289 32.3126C41.0289 32.5665 41.2456 32.6512 41.7223 32.6512C43.0224 32.6512 45.7526 32.5242 45.8826 32.5242C46.0993 32.5242 48.8295 32.6512 51.213 32.6512C51.6897 32.6512 51.9064 32.5242 51.9064 32.3126C51.9064 32.1856 51.8197 32.0587 51.5597 32.0587C51.1697 32.0587 50.2162 31.974 49.6096 31.8893C48.3094 31.7201 48.0494 30.7889 47.9194 29.5616C47.7027 27.784 47.7027 24.4405 47.7027 20.3775V2.98257C47.7027 2.55932 47.7894 2.26312 48.0494 2.17845C48.4395 2.00911 49.1762 1.92454 49.9129 1.92454C50.9096 1.92454 53.5531 1.7552 55.85 4.0407C58.1469 6.3261 58.2769 9.1618 58.2769 10.5584C58.2769 14.4522 54.9833 17.4571 50.7796 17.4571C49.8696 17.4571 49.6096 17.4995 49.6096 17.8381C49.6096 18.0497 49.8696 18.1343 50.0863 18.1343C50.303 18.1766 50.7796 18.1766 50.9963 18.1766C57.1501 18.1766 61.6571 14.1136 61.6571 8.10368C61.6571 5.86056 60.4437 3.95603 59.4903 3.06724C58.7969 2.43236 56.8467 0.654785 51.4297 0.654785C49.4362 0.654785 46.9227 0.781742 45.9693 0.781742C45.6226 0.781742 43.0224 0.654785 41.0723 0.654785C40.5956 0.654785 40.3789 0.739456 40.3789 0.993367C40.3789 1.16271 40.5522 1.24728 40.7256 1.24728C41.1156 1.24728 41.8524 1.28966 42.199 1.37433C43.6291 1.67053 43.9758 2.34769 44.0625 3.78669C44.1492 5.14102 44.1492 6.3261 44.1492 12.9286V20.3775Z" fill="#454545"/>
<path fill-rule="evenodd" clip-rule="evenodd" d="M2.8623 14.3445C2.8623 14.2473 2.86363 14.1513 2.86476 14.0551C11.0278 16.3548 20.3402 11.0365 29.0779 14.0551C29.1336 14.7186 29.1631 15.4034 29.1631 16.1109C29.1631 28.9611 20.9551 31.2575 16.9837 31.2575C9.0403 31.2575 2.8623 24.6336 2.8623 14.3445Z" fill="#00A0E3"/>
<path fill-rule="evenodd" clip-rule="evenodd" d="M29.4086 34.6482C36.0626 38.3062 41.361 40.1557 46.3309 40.1557C52.4099 40.1557 57.01 38.3884 59.3512 37.3198C59.5977 37.1965 59.6798 37.0731 59.6798 36.9087C59.6798 36.7854 59.5977 36.6621 59.4334 36.6621C59.3102 36.6621 59.1048 36.7443 58.8583 36.8265C56.0243 37.9774 52.8205 38.4295 50.7668 38.4295C48.7132 38.4295 42.47 38.2239 33.4749 33.5795L25.0549 29.2229C27.7657 27.4554 32.3249 22.6467 32.3249 15.4129C32.3249 5.8774 25.4245 0 16.1829 0C4.84667 0 0 9.41212 0 16.0705C0 23.4686 4.68243 32.2232 16.0597 32.2232C18.2367 32.2232 21.0296 31.6067 22.5083 30.8258L29.4086 34.6482ZM3.90206 14.9197C3.90206 5.91856 9.03619 1.39744 15.8955 1.39744C22.3851 1.39744 28.3819 6.69946 28.3819 16.5637C28.3819 28.5241 20.7422 30.6614 17.0455 30.6614C9.65232 30.6614 3.90206 24.4962 3.90206 14.9197Z" fill="#454545"/>
<path fill-rule="evenodd" clip-rule="evenodd" d="M74.7245 23.3534C74.7245 25.946 74.7245 28.0796 74.5894 29.2138C74.4816 29.9968 74.3466 30.591 73.807 30.6988C73.5641 30.7528 73.2401 30.807 72.9972 30.807C72.8352 30.807 72.7813 30.8879 72.7813 30.9688C72.7813 31.1313 72.9164 31.1852 73.2132 31.1852C74.0229 31.1852 75.5881 31.104 75.804 31.104C76.0199 31.104 77.5852 31.1852 78.9076 31.1852C79.2043 31.1852 79.3394 31.104 79.3394 30.9688C79.3394 30.8879 79.2852 30.807 79.1235 30.807C78.8803 30.807 78.4488 30.7528 78.0709 30.6988C77.2612 30.591 77.0995 29.9968 77.0183 29.2138C76.8836 28.0796 76.8836 25.946 76.8836 23.3534V20.7071H77.0183C78.3138 22.3004 84.0352 28.4844 85.2494 29.4837C86.4098 30.4019 87.0848 30.9961 88.515 31.1313C89.1085 31.1852 89.6215 31.1852 90.377 31.1852H91.7533C92.2121 31.1852 92.3471 31.104 92.3471 30.9688C92.3471 30.861 92.1851 30.807 91.9962 30.807C91.8075 30.807 91.0247 30.7528 90.3231 30.4558C89.0277 29.9158 88.5689 29.4837 86.302 27.3772C85.1956 26.3511 79.5823 20.545 78.8803 19.7617C79.4472 19.0866 84.143 14.4959 84.8176 13.8477C86.0322 12.6865 86.6257 12.0114 87.7322 11.5254C88.2722 11.282 88.8387 11.1472 89.2436 11.1472C89.4595 11.1472 89.5134 11.0933 89.5134 10.9581C89.5134 10.823 89.4056 10.769 89.1085 10.769C88.4342 10.769 86.6527 10.8499 86.518 10.8499C85.8702 10.8499 85.0335 10.769 84.4939 10.769C84.305 10.769 84.1699 10.823 84.1699 10.9581C84.1699 11.066 84.278 11.1202 84.4131 11.1742C84.629 11.2551 84.7637 11.4172 84.7637 11.7414C84.7637 12.2002 84.0621 12.9023 83.3063 13.6856C82.3349 14.7389 77.4501 19.7078 76.9914 20.2208H76.8836V18.6005C76.8836 14.3877 76.8836 13.6316 76.9375 12.7674C76.9914 11.8223 77.2073 11.3633 77.9359 11.2281C78.2599 11.1742 78.4219 11.1472 78.6105 11.1472C78.7186 11.1472 78.8264 11.0933 78.8264 10.9851C78.8264 10.823 78.6917 10.769 78.3946 10.769C77.5852 10.769 76.02 10.8499 75.7768 10.8499C75.6151 10.8499 74.0229 10.769 72.8083 10.769C72.5115 10.769 72.3765 10.823 72.3765 10.9851C72.3765 11.0933 72.4846 11.1472 72.5924 11.1472C72.8352 11.1472 73.2943 11.1742 73.5099 11.2281C74.4008 11.4172 74.6167 11.8493 74.6706 12.7674C74.7245 13.6316 74.7245 14.3877 74.7245 18.6005V23.3534Z" fill="#454545"/>
<path fill-rule="evenodd" clip-rule="evenodd" d="M119.301 23.312C119.301 25.8961 119.301 28.0227 119.167 29.1531C119.059 29.9336 118.925 30.5258 118.387 30.6333C118.145 30.6871 117.822 30.7412 117.58 30.7412C117.418 30.7412 117.364 30.8218 117.364 30.9024C117.364 31.0643 117.499 31.1181 117.795 31.1181C118.602 31.1181 120.296 31.0371 120.377 31.0371C120.512 31.0371 122.206 31.1181 123.686 31.1181C123.982 31.1181 124.116 31.0371 124.116 30.9024C124.116 30.8218 124.062 30.7412 123.901 30.7412C123.659 30.7412 123.067 30.6871 122.69 30.6333C121.883 30.5258 121.722 29.9336 121.642 29.1531C121.507 28.0227 121.507 25.8961 121.507 23.312V12.2495C121.507 11.9801 121.561 11.792 121.722 11.7382C121.964 11.6304 122.421 11.5766 122.879 11.5766C123.497 11.5766 125.138 11.4688 126.564 12.9224C127.989 14.3758 128.07 16.1791 128.07 17.0674C128.07 19.544 126.026 21.4549 123.417 21.4549C122.852 21.4549 122.69 21.4818 122.69 21.6971C122.69 21.8318 122.852 21.8856 122.986 21.8856C123.121 21.9124 123.417 21.9124 123.551 21.9124C127.371 21.9124 130.168 19.3286 130.168 15.5062C130.168 14.0798 129.415 12.8687 128.823 12.3033C128.393 11.8995 127.182 10.769 123.82 10.769C122.583 10.769 121.023 10.8497 120.431 10.8497C120.216 10.8497 118.602 10.769 117.391 10.769C117.096 10.769 116.961 10.8228 116.961 10.9844C116.961 11.0922 117.069 11.146 117.176 11.146C117.418 11.146 117.875 11.1728 118.091 11.2266C118.978 11.4151 119.193 11.8457 119.248 12.7609C119.301 13.6222 119.301 14.3758 119.301 18.5748V23.312Z" fill="#454545"/>
<path fill-rule="evenodd" clip-rule="evenodd" d="M94.6774 22.391C94.6774 26.2495 95.681 28.0993 96.9751 29.3415C98.85 31.1121 101.518 31.2177 102.416 31.2177C103.974 31.2177 105.954 30.9535 107.856 29.262C109.969 27.3859 110.286 24.2144 110.286 21.3603V18.5326C110.286 14.4099 110.286 13.67 110.338 12.8243C110.391 11.8994 110.602 11.4765 111.315 11.3179C111.632 11.2651 111.791 11.2387 111.976 11.2387C112.081 11.2387 112.187 11.1859 112.187 11.0801C112.187 10.9214 112.055 10.8687 111.765 10.8687C110.972 10.8687 109.731 10.9478 109.546 10.9478C109.388 10.9478 107.935 10.8687 106.747 10.8687C106.456 10.8687 106.324 10.9214 106.324 11.0801C106.324 11.1859 106.43 11.2387 106.536 11.2387C106.773 11.2387 107.222 11.2651 107.433 11.3179C108.305 11.5029 108.516 11.9258 108.569 12.8243C108.622 13.67 108.622 14.4099 108.622 18.5326V21.8359C108.622 24.5581 108.305 26.8044 107.09 28.3107C106.139 29.4471 104.555 30.2136 102.944 30.2136C101.438 30.2136 100.25 29.9758 98.9558 28.76C97.82 27.6765 96.9751 26.0381 96.9751 22.2324V18.5326C96.9751 14.4099 96.9751 13.67 97.0279 12.8243C97.0806 11.8994 97.2919 11.4238 98.0049 11.3179C98.322 11.2651 98.4805 11.2387 98.6654 11.2387C98.7709 11.2387 98.8767 11.1859 98.8767 11.0801C98.8767 10.9214 98.7446 10.8687 98.4542 10.8687C97.6618 10.8687 96.0772 10.9478 95.8396 10.9478C95.6016 10.9478 93.9907 10.8687 92.8025 10.8687C92.5117 10.8687 92.3799 10.9214 92.3799 11.0801C92.3799 11.1859 92.4854 11.2387 92.5912 11.2387C92.8288 11.2387 93.2778 11.2651 93.4891 11.3179C94.3606 11.5029 94.5719 11.9258 94.6246 12.8243C94.6774 13.67 94.6774 14.4099 94.6774 18.5326V22.391Z" fill="#454545"/>
<path fill-rule="evenodd" clip-rule="evenodd" d="M191.686 31.2177C193.086 31.2177 194.487 30.9064 195.602 30.1276C197.392 28.8558 197.807 26.8832 197.807 25.819C197.807 23.7425 197.081 22.1334 194.02 19.7196L193.294 19.1485C190.804 17.2019 190.129 16.2673 190.129 14.7881C190.129 12.8933 191.53 11.7773 193.32 11.7773C195.706 11.7773 196.406 12.8674 196.562 13.1528C196.717 13.4382 196.873 14.1392 196.899 14.4506C196.925 14.6582 196.951 14.7881 197.106 14.7881C197.236 14.7881 197.288 14.6064 197.288 14.1911C197.288 12.4262 197.392 11.5697 197.392 11.4398C197.392 11.3099 197.34 11.258 197.132 11.258C196.925 11.258 196.717 11.2321 196.225 11.1282C195.576 10.9726 194.824 10.8687 193.812 10.8687C190.518 10.8687 188.443 12.7635 188.443 15.5407C188.443 17.3056 189.066 18.915 191.815 21.1732L192.982 22.1334C195.213 23.9764 195.965 25.0143 195.965 26.8054C195.965 28.4664 194.746 30.2575 192.256 30.2575C190.518 30.2575 188.806 29.5308 188.417 27.6101C188.339 27.2467 188.339 26.8832 188.339 26.6496C188.339 26.442 188.314 26.3642 188.158 26.3642C188.028 26.3642 187.977 26.4938 187.95 26.7792C187.924 27.1945 187.821 28.2331 187.821 29.5308C187.821 30.2315 187.847 30.3352 188.21 30.517C189.273 31.036 190.466 31.2177 191.686 31.2177Z" fill="#454545"/>
<path fill-rule="evenodd" clip-rule="evenodd" d="M139.251 18.6744C139.251 14.4754 139.251 13.7218 139.305 12.8605C139.359 11.9185 139.574 11.4609 140.301 11.3262C140.623 11.2724 140.785 11.2456 140.973 11.2456C141.081 11.2456 141.188 11.1918 141.188 11.084C141.188 10.9224 141.054 10.8687 140.758 10.8687C139.951 10.8687 138.256 10.9493 138.122 10.9493C137.987 10.9493 136.293 10.8687 135.405 10.8687C135.109 10.8687 134.975 10.9224 134.975 11.084C134.975 11.1918 135.082 11.2456 135.19 11.2456C135.378 11.2456 135.728 11.2725 136.024 11.3531C136.616 11.4878 136.885 11.9453 136.938 12.8605C136.992 13.7218 136.992 14.4754 136.992 18.6744V23.4116C136.992 25.9957 136.992 28.1223 136.858 29.2528C136.75 30.0332 136.616 30.6254 136.077 30.7329C135.835 30.7867 135.513 30.8408 135.27 30.8408C135.109 30.8408 135.055 30.9214 135.055 31.002C135.055 31.1639 135.19 31.2177 135.486 31.2177C136.293 31.2177 137.987 31.1367 138.122 31.1367C138.256 31.1367 139.951 31.2177 141.43 31.2177C141.726 31.2177 141.861 31.1368 141.861 31.002C141.861 30.9214 141.807 30.8408 141.645 30.8408C141.403 30.8408 140.812 30.7867 140.435 30.7329C139.628 30.6254 139.467 30.0332 139.386 29.2528C139.251 28.1223 139.251 25.9957 139.251 23.4116V18.6744Z" fill="#454545"/>
<path fill-rule="evenodd" clip-rule="evenodd" d="M151.483 23.4701C151.483 25.9842 151.483 28.0532 151.352 29.1531C151.248 29.9124 151.117 30.4886 150.593 30.5932C150.358 30.6455 150.044 30.6981 149.808 30.6981C149.651 30.6981 149.599 30.7766 149.599 30.855C149.599 31.0126 149.73 31.0648 150.017 31.0648C150.41 31.0648 151.012 31.0125 151.535 31.0125C152.085 30.9861 152.53 30.9861 152.582 30.9861C152.687 30.9861 153.42 31.0125 154.179 31.0648C154.938 31.091 155.775 31.1433 156.063 31.1433C160.538 31.1433 162.736 28.2363 162.736 25.4345C162.736 22.3702 160.145 20.511 158.209 19.9086C159.439 18.6254 160.669 17.3422 160.669 15.1947C160.669 13.8854 159.727 11.2666 155.435 11.2666C154.231 11.2666 153.21 11.345 152.582 11.345C152.451 11.345 150.803 11.2666 149.625 11.2666C149.337 11.2666 149.206 11.3189 149.206 11.4761C149.206 11.581 149.311 11.6333 149.415 11.6333C149.651 11.6333 150.096 11.6595 150.305 11.7118C151.169 11.8951 151.378 12.3142 151.431 13.2045C151.483 14.0426 151.483 14.7757 151.483 18.8611V23.4701ZM153.577 12.4191C153.577 12.2618 153.655 12.1831 153.891 12.1308C154.309 12.0262 154.859 12 155.147 12C157.712 12 158.68 14.3305 158.68 16.5041C158.68 17.5778 158.288 18.5208 157.738 19.149C157.188 19.7776 156.822 19.8302 155.356 19.8302C154.388 19.8302 153.917 19.7514 153.76 19.7253C153.629 19.673 153.577 19.6207 153.577 19.4373V12.4191ZM153.577 20.7205C153.577 20.5895 153.629 20.5372 153.734 20.5372C154.126 20.5372 155.435 20.5372 155.775 20.5895C156.403 20.6679 157.057 20.7467 157.947 21.3491C159.962 22.7369 160.486 25.0154 160.486 26.5866C160.486 29.5457 158.209 30.3053 156.796 30.3053C156.324 30.3053 155.199 30.253 154.493 29.9124C153.681 29.5198 153.681 29.1531 153.603 27.8699C153.577 27.477 153.577 24.2297 153.577 22.2133V20.7205Z" fill="#454545"/>
<path fill-rule="evenodd" clip-rule="evenodd" d="M167.953 28.3105C167.478 29.6319 166.95 30.6362 165.735 30.7945C165.524 30.8212 165.154 30.8476 164.969 30.8476C164.837 30.8476 164.731 30.9004 164.731 31.006C164.731 31.1649 164.89 31.2177 165.233 31.2177C166.475 31.2177 167.927 31.1382 168.217 31.1382C168.508 31.1382 169.644 31.2177 170.278 31.2177C170.515 31.2177 170.674 31.1649 170.674 31.006C170.674 30.9004 170.594 30.8476 170.41 30.8476H170.145C169.696 30.8476 169.142 30.6098 169.142 30.0811C169.142 29.6054 169.274 28.9712 169.512 28.3105L171.096 23.633C171.149 23.5008 171.228 23.4216 171.36 23.4216H177.038C177.171 23.4216 177.223 23.4744 177.276 23.5803L179.732 30.0811C179.891 30.5039 179.732 30.7417 179.574 30.7945C179.468 30.8212 179.389 30.874 179.389 30.9799C179.389 31.1382 179.679 31.1382 180.181 31.1649C182.003 31.2177 183.931 31.2177 184.327 31.2177C184.618 31.2177 184.856 31.1649 184.856 31.006C184.856 30.874 184.75 30.8476 184.591 30.8476C184.327 30.8476 183.931 30.8212 183.535 30.689C182.98 30.5303 182.215 30.1075 181.264 27.7557C179.653 23.7386 175.507 12.8243 175.11 11.8202C174.793 11.0009 174.688 10.8687 174.529 10.8687C174.371 10.8687 174.265 11.0273 173.949 11.8994L167.953 28.3105ZM171.651 22.4704C171.572 22.4704 171.519 22.4173 171.572 22.2853L173.895 15.15C174.028 14.7535 174.16 14.7535 174.292 15.15L176.801 22.2853C176.827 22.3909 176.827 22.4704 176.695 22.4704H171.651Z" fill="#454545"/>
</svg>
