
<svg version="1.0" xmlns="http://www.w3.org/2000/svg"
 width="500.000000pt" height="500.000000pt" viewBox="0 0 500.000000 500.000000"
 preserveAspectRatio="xMidYMid meet">
<g transform="translate(0.000000,500.000000) scale(0.100000,-0.100000)"
fill="#45bab4" stroke="none">
<path d="M2285 4213 c-83 -7 -262 -45 -348 -74 -263 -87 -467 -211 -665 -403
-176 -171 -329 -416 -416 -664 -180 -518 -97 -1090 227 -1552 96 -138 276
-321 392 -400 44 -30 99 -67 122 -82 23 -16 88 -51 145 -78 512 -242 1054
-237 1553 15 485 245 824 708 919 1255 74 431 -36 901 -295 1255 -89 122 -127
164 -244 268 -82 73 -73 60 51 -74 134 -144 289 -426 343 -624 51 -189 65
-284 65 -470 0 -177 -9 -251 -51 -420 -44 -178 -90 -282 -205 -468 -145 -234
-391 -454 -640 -575 -231 -112 -411 -159 -648 -169 -298 -12 -573 51 -837 193
-154 83 -315 212 -435 350 -101 116 -123 145 -176 238 -166 291 -224 505 -225
831 0 281 48 486 171 731 73 146 145 251 255 375 86 96 117 123 242 216 215
160 483 270 760 313 115 17 117 18 50 17 -38 0 -88 -2 -110 -4z"/>
<path d="M2925 3912 c39 -15 86 -35 105 -43 184 -76 388 -232 534 -407 77 -93
178 -266 227 -392 91 -231 114 -496 69 -780 -27 -165 -124 -389 -242 -555 -73
-103 -236 -262 -338 -329 -153 -103 -341 -182 -524 -222 -39 -9 -136 -18 -216
-21 -241 -8 -425 31 -647 137 -162 77 -256 144 -383 270 -245 243 -377 529
-411 889 -21 228 35 531 136 731 109 216 261 401 433 529 79 59 93 76 35 40
-367 -221 -600 -555 -688 -984 -23 -112 -30 -309 -16 -433 52 -442 302 -844
676 -1088 276 -179 621 -266 943 -236 435 39 830 259 1089 606 145 196 252
463 282 711 82 672 -319 1332 -943 1554 -141 49 -227 66 -121 23z"/>
<path d="M2324 3725 c-79 -14 -249 -63 -242 -70 2 -2 39 6 83 17 67 18 112 21
270 22 179 1 197 -1 300 -28 312 -81 589 -293 734 -560 108 -199 151 -361 151
-571 0 -203 -43 -370 -142 -554 -65 -121 -114 -185 -219 -286 -90 -86 -227
-175 -350 -227 -251 -105 -531 -115 -801 -28 -363 117 -672 444 -763 808 -38
150 -51 299 -37 426 12 113 53 290 78 339 9 16 11 26 5 23 -5 -4 -23 -42 -40
-85 -126 -326 -129 -591 -11 -912 39 -106 94 -200 181 -310 79 -99 127 -145
236 -226 288 -214 679 -291 1023 -203 229 59 336 117 561 300 54 43 187 218
240 315 94 169 149 389 149 595 0 454 -240 864 -634 1081 -84 46 -250 107
-356 129 -87 19 -323 21 -416 5z"/>
<path d="M2399 3459 c-116 -12 -204 -36 -298 -80 -111 -52 -258 -164 -318
-243 l-47 -61 63 63 c105 104 255 192 408 239 80 24 103 26 248 27 147 0 167
-2 250 -28 254 -78 449 -242 560 -471 78 -161 90 -210 90 -395 0 -187 -16
-256 -102 -422 -48 -95 -68 -122 -152 -206 -154 -154 -324 -237 -537 -264
-237 -30 -509 55 -701 219 -118 100 -247 299 -288 444 l-15 54 6 -55 c13 -114
88 -269 201 -415 103 -133 328 -269 509 -307 395 -82 774 66 1007 394 59 82
121 214 142 299 23 92 30 299 15 411 -12 94 -60 238 -102 307 -124 205 -284
347 -484 429 -118 49 -319 76 -455 61z"/>
<path d="M2405 3260 c-172 -23 -304 -84 -422 -194 -119 -110 -201 -250 -217
-366 l-6 -45 14 45 c20 66 40 108 83 172 132 198 339 320 568 335 255 17 507
-111 643 -326 60 -94 88 -163 107 -264 20 -103 19 -153 -4 -265 -35 -166 -131
-322 -260 -417 -152 -114 -270 -155 -446 -155 -131 0 -197 15 -314 70 -89 43
-136 75 -215 149 l-49 46 32 -42 c162 -212 470 -317 744 -254 298 69 518 289
577 579 26 127 25 217 -1 340 -49 225 -201 418 -414 524 -105 53 -299 84 -420
68z"/>
<path d="M2321 3045 c-102 -31 -172 -76 -252 -163 -70 -77 -88 -108 -120 -212
-31 -100 -32 -237 -1 -325 12 -33 19 -46 16 -30 -26 135 -26 195 3 309 20 82
56 149 111 209 117 126 250 187 405 187 156 0 276 -51 385 -164 110 -113 152
-216 152 -371 0 -156 -49 -274 -163 -387 -112 -112 -248 -164 -410 -156 -62 3
-82 1 -66 -5 13 -5 69 -10 124 -11 85 -1 113 3 187 28 106 36 195 99 266 192
120 154 147 355 77 556 -28 81 -55 124 -117 187 -122 125 -228 171 -403 177
-96 4 -121 1 -194 -21z"/>
<path d="M2395 2877 c-117 -39 -196 -105 -246 -205 -32 -63 -34 -73 -34 -172
0 -99 2 -109 33 -173 34 -69 83 -126 124 -148 13 -6 5 4 -17 24 -78 68 -132
206 -121 311 25 244 262 395 490 312 77 -27 126 -63 166 -118 76 -104 93 -238
46 -361 -33 -87 -73 -138 -139 -176 -29 -17 -49 -31 -44 -31 15 0 114 60 134
82 41 44 92 152 102 216 27 169 -58 331 -215 409 -65 32 -86 37 -157 40 -50 2
-98 -2 -122 -10z"/>
<path d="M2453 2780 c-138 -28 -232 -143 -233 -284 0 -147 105 -263 255 -280
l50 -6 -60 15 c-87 22 -152 74 -193 155 -30 58 -33 72 -29 125 5 74 32 129 86
178 53 47 92 67 149 74 135 16 263 -85 298 -234 l14 -58 -5 59 c-15 164 -174
287 -332 256z"/>
</g>
</svg>
