<svg width="63" height="41" viewBox="0 0 63 41" fill="none" xmlns="http://www.w3.org/2000/svg">
<path fill-rule="evenodd" clip-rule="evenodd" d="M45.0771 20.8063C45.0771 24.9547 45.0771 28.3686 44.8558 30.1835C44.6788 31.4367 44.4575 32.3874 43.5726 32.5602C43.1744 32.6467 42.6434 32.7331 42.2452 32.7331C41.9797 32.7331 41.8912 32.8628 41.8912 32.9924C41.8912 33.2516 42.1124 33.3381 42.5991 33.3381C43.9266 33.3381 46.7142 33.2085 46.847 33.2085C47.0682 33.2085 49.8558 33.3381 52.2894 33.3381C52.7761 33.3381 52.9974 33.2085 52.9974 32.9924C52.9974 32.8628 52.9089 32.7331 52.6434 32.7331C52.2452 32.7331 51.2717 32.6467 50.6523 32.5602C49.3248 32.3874 49.0593 31.4367 48.9266 30.1835C48.7054 28.3686 48.7054 24.9547 48.7054 20.8063V3.04567C48.7054 2.61352 48.7939 2.31109 49.0593 2.22464C49.4576 2.05174 50.2098 1.9654 50.9619 1.9654C51.9797 1.9654 54.6788 1.7925 57.024 4.12605C59.3691 6.4595 59.5018 9.35483 59.5018 10.7808C59.5018 14.7564 56.139 17.8245 51.8469 17.8245C50.9177 17.8245 50.6523 17.8678 50.6523 18.2135C50.6523 18.4296 50.9177 18.5159 51.139 18.5159C51.3602 18.5592 51.8469 18.5592 52.0682 18.5592C58.3514 18.5592 62.9532 14.4107 62.9532 8.27445C62.9532 5.98418 61.7142 4.0396 60.7408 3.13212C60.0328 2.4839 58.0416 0.668945 52.5107 0.668945C50.4752 0.668945 47.9089 0.798571 46.9355 0.798571C46.5815 0.798571 43.9266 0.668945 41.9355 0.668945C41.4488 0.668945 41.2275 0.755396 41.2275 1.01465C41.2275 1.18755 41.4045 1.2739 41.5815 1.2739C41.9797 1.2739 42.732 1.31717 43.0859 1.40362C44.5461 1.70605 44.9 2.39745 44.9886 3.8667C45.0771 5.2495 45.0771 6.4595 45.0771 13.2008V20.8063Z" fill="#454545"/>
<path fill-rule="evenodd" clip-rule="evenodd" d="M2.92188 14.6465C2.92188 14.5472 2.92323 14.4493 2.92438 14.351C11.2591 16.6991 20.7673 11.269 29.6887 14.351C29.7455 15.0285 29.7757 15.7277 29.7757 16.45C29.7757 29.5705 21.3951 31.9151 17.3401 31.9151C9.22976 31.9151 2.92188 25.152 2.92188 14.6465Z" fill="#00A0E3"/>
<path fill-rule="evenodd" clip-rule="evenodd" d="M30.027 35.3767C36.8208 39.1116 42.2307 41 47.3051 41C53.5118 41 58.2087 39.1955 60.5991 38.1044C60.8507 37.9785 60.9346 37.8526 60.9346 37.6848C60.9346 37.5589 60.8507 37.433 60.683 37.433C60.5572 37.433 60.3475 37.5169 60.0959 37.6008C57.2022 38.7759 53.9311 39.2375 51.8343 39.2375C49.7374 39.2375 43.363 39.0276 34.1788 34.2856L25.5817 29.8373C28.3495 28.0327 33.0045 23.1228 33.0045 15.737C33.0045 6.00098 25.9591 0 16.5232 0C4.94858 0 0 9.61001 0 16.4084C0 23.9621 4.78088 32.9007 16.3974 32.9007C18.6201 32.9007 21.4718 32.2713 22.9815 31.4739L30.027 35.3767ZM3.9841 15.2333C3.9841 6.043 9.22618 1.42682 16.2297 1.42682C22.8557 1.42682 28.9786 6.84032 28.9786 16.9119C28.9786 29.1238 21.1783 31.306 17.4039 31.306C9.85526 31.306 3.9841 25.0113 3.9841 15.2333Z" fill="#454545"/>
</svg>
