<svg width="264" height="54" viewBox="0 0 264 54" fill="none" xmlns="http://www.w3.org/2000/svg">
    <path id="svg_1" fill="#454545" d="m58.8659,27.17c0,5.4173 0,9.8753 -0.2889,12.2454c-0.2312,1.6365 -0.5202,2.8781 -1.6757,3.1037c-0.5201,0.1129 -1.2134,0.2258 -1.7335,0.2258c-0.3467,0 -0.4623,0.1693 -0.4623,0.3386c0,0.3385 0.2889,0.4514 0.9245,0.4514c1.7335,0 5.3738,-0.1693 5.5471,-0.1693c0.289,0 3.9292,0.1693 7.1072,0.1693c0.6356,0 0.9245,-0.1693 0.9245,-0.4514c0,-0.1693 -0.1156,-0.3386 -0.4622,-0.3386c-0.52,0 -1.7913,-0.1129 -2.6002,-0.2258c-1.7335,-0.2256 -2.0802,-1.4672 -2.2535,-3.1037c-0.2889,-2.3701 -0.2889,-6.8281 -0.2889,-12.2454l0,-23.19324c0,-0.56434 0.1156,-0.95927 0.4622,-1.07216c0.5201,-0.22579 1.5024,-0.33855 2.4846,-0.33855c1.329,0 4.8537,-0.22578 7.9163,2.82155c3.0624,3.0472 3.2357,6.8281 3.2357,8.6903c0,5.1916 -4.3914,9.1982 -9.9963,9.1982c-1.2134,0 -1.5601,0.0565 -1.5601,0.508c0,0.2822 0.3467,0.3949 0.6356,0.3949c0.2889,0.0565 0.9245,0.0565 1.2134,0.0565c8.2051,0 14.2144,-5.4174 14.2144,-13.4306c0,-2.99082 -1.6179,-5.5302 -2.8891,-6.71525c-0.9245,-0.8465 -3.5248,-3.2166 -10.7474,-3.2166c-2.6581,0 -6.0094,0.16927 -7.2806,0.16927c-0.4622,0 -3.9292,-0.16927 -6.5293,-0.16927c-0.6356,0 -0.9245,0.11289 -0.9245,0.45144c0,0.22579 0.231,0.33855 0.4622,0.33855c0.52,0 1.5024,0.05651 1.9646,0.1694c1.9067,0.39493 2.369,1.29782 2.4846,3.21648c0.1156,1.80577 0.1156,3.38588 0.1156,12.18918l0,9.9319z" clip-rule="evenodd" fill-rule="evenodd"> 
    </path>
    <path id="svg_2" d="m3.81641,19.1257c0,-0.1297 0.00176,-0.2576 0.00327,-0.386c10.88412,3.0664 23.30062,-4.0247 34.95092,0c0.0742,0.8848 0.1136,1.7978 0.1136,2.7411c0,17.1337 -10.944,20.1955 -16.2393,20.1955c-10.5912,0 -18.82849,-8.8318 -18.82849,-22.5506l0,0z" fill="#00A0E3" clip-rule="evenodd" fill-rule="evenodd"> 
        <animate 
            attributeType="CSS" 
            attributeName="d" 
            from="m3.81641,19.1257c0,-0.1297 0.00176,-0.2576 0.00327,-0.386c10.88412,3.0664 23.30062,-4.0247 34.95092,0c0.0742,0.8848 0.1136,1.7978 0.1136,2.7411c0,17.1337 -10.944,20.1955 -16.2393,20.1955c-10.5912,0 -18.82849,-8.8318 -18.82849,-22.5506l0,0z" 
            to="m3.81641,19.1257c0,-0.1297 0.00176,-0.2576 0.00327,-0.386c10.88412,3.0664 36.89032,-22.22977 34.95092,0c0.0742,0.8848 0.1136,1.7978 0.1136,2.7411c0,17.1337 -10.944,20.1955 -16.2393,20.1955c-10.5912,0 -18.82849,-8.8318 -18.82849,-22.5506l0,0z" 
            dur="7s" 
            values="
                m3.81641,19.1257c0,-0.1297 0.00176,-0.2576 0.00327,-0.386c10.88412,3.0664 23.30062,-4.0247 34.95092,0c0.0742,0.8848 0.1136,1.7978 0.1136,2.7411c0,17.1337 -10.944,20.1955 -16.2393,20.1955c-10.5912,0 -18.82849,-8.8318 -18.82849,-22.5506l0,0z; 
                m3.81641,19.1257c0,-0.1297 0.00176,-0.2576 0.00327,-0.386c10.88412,3.0664 36.89032,-22.22977 34.95092,0c0.0742,0.8848 0.1136,1.7978 0.1136,2.7411c0,17.1337 -10.944,20.1955 -16.2393,20.1955c-10.5912,0 -18.82849,-8.8318 -18.82849,-22.5506l0,0z; 
                m3.81641,19.1257c0,-0.1297 0.00176,-0.2576 0.00327,-0.386c10.88412,3.0664 26.121123,8.795772 34.95092,0c0.0742,0.8848 0.1136,1.7978 0.1136,2.7411c0,17.1337 -10.944,20.1955 -16.2393,20.1955c-10.5912,0 -18.82849,-8.8318 -18.82849,-22.5506l0,0z; 
                m3.81641,19.1257c0,-0.1297 0.00176,-0.2576 0.00327,-0.386c10.88412,3.0664 23.30062,-4.0247 34.95092,0c0.0742,0.8848 0.1136,1.7978 0.1136,2.7411c0,17.1337 -10.944,20.1955 -16.2393,20.1955c-10.5912,0 -18.82849,-8.8318 -18.82849,-22.5506l0,0z"
            keyTimes="0;0.35;0.65;1"
            repeatCount="indefinite"
        />
    </path>
    <path id="svg_3" fill="#454545" d="m39.2115,46.1975c8.8719,4.8774 15.9365,7.3434 22.5631,7.3434c8.1052,0 14.2388,-2.3564 17.3604,-3.7812c0.3285,-0.1644 0.4381,-0.3289 0.4381,-0.5481c0,-0.1644 -0.1096,-0.3287 -0.3286,-0.3287c-0.1642,0 -0.4381,0.1095 -0.7667,0.2191c-3.7788,1.5345 -8.0505,2.1373 -10.7887,2.1373c-2.7382,0 -11.0624,-0.2741 -23.0558,-6.4666l-11.2268,-5.8089c3.6145,-2.3565 9.6933,-8.7682 9.6933,-18.4133c0,-12.71396 -9.2005,-20.5505 -21.5225,-20.5505c-15.11507,0 -21.5773,12.5495 -21.5773,21.4273c0,9.8642 6.24324,21.5369 21.413,21.5369c2.9026,0 6.6265,-0.8219 8.5981,-1.8631l9.2004,5.0964l0,0zm-34.00876,-26.3046c0,-12.00148 6.84546,-18.02965 15.99126,-18.02965c8.6528,0 16.6485,7.06936 16.6485,20.22165c0,15.9472 -10.1863,18.7969 -15.1152,18.7969c-9.8575,0 -17.52456,-8.2202 -17.52456,-20.9889l0,0z" clip-rule="evenodd" fill-rule="evenodd"> 
    </path>
    <path id="svg_4" fill="#454545" d="m99.6327,31.138c0,3.4568 0,6.3016 -0.1801,7.8139c-0.1437,1.0439 -0.3238,1.8362 -1.0433,1.98c-0.3238,0.072 -0.7558,0.1443 -1.0796,0.1443c-0.2161,0 -0.2879,0.1079 -0.2879,0.2157c0,0.2166 0.1801,0.2885 0.5757,0.2885c1.0797,0 3.1665,-0.1083 3.4545,-0.1083c0.288,0 2.375,0.1083 4.138,0.1083c0.396,0 0.576,-0.1083 0.576,-0.2885c0,-0.1078 -0.072,-0.2157 -0.288,-0.2157c-0.324,0 -0.9,-0.0723 -1.403,-0.1443c-1.08,-0.1438 -1.296,-0.9361 -1.404,-1.98c-0.18,-1.5123 -0.18,-4.3571 -0.18,-7.8139l0,-3.5283l0.18,0c1.727,2.1243 9.356,10.3696 10.975,11.7021c1.547,1.2242 2.447,2.0165 4.354,2.1967c0.791,0.0719 1.475,0.0719 2.483,0.0719l1.835,0c0.611,0 0.792,-0.1083 0.792,-0.2885c0,-0.1438 -0.216,-0.2157 -0.468,-0.2157c-0.252,0 -1.296,-0.0723 -2.231,-0.4683c-1.727,-0.7199 -2.339,-1.2961 -5.362,-4.1049c-1.475,-1.368 -8.959,-9.1095 -9.895,-10.1539c0.756,-0.9002 7.017,-7.0211 7.916,-7.8853c1.62,-1.5483 2.411,-2.4484 3.886,-3.0965c0.72,-0.3244 1.476,-0.5042 2.015,-0.5042c0.288,0 0.36,-0.0719 0.36,-0.2521c0,-0.1802 -0.144,-0.2521 -0.54,-0.2521c-0.899,0 -3.274,0.1078 -3.454,0.1078c-0.863,0 -1.979,-0.1078 -2.698,-0.1078c-0.252,0 -0.432,0.0719 -0.432,0.2521c0,0.1438 0.144,0.2162 0.324,0.2881c0.288,0.1078 0.467,0.324 0.467,0.7563c0,0.6117 -0.935,1.5478 -1.943,2.5922c-1.295,1.4044 -7.808,8.0296 -8.42,8.7136l-0.144,0l0,-2.1603c0,-5.6172 0,-6.6252 0.072,-7.7775c0.072,-1.2601 0.36,-1.8722 1.331,-2.0524c0.432,-0.0719 0.649,-0.1079 0.9,-0.1079c0.144,0 0.288,-0.0719 0.288,-0.2162c0,-0.2161 -0.18,-0.288 -0.576,-0.288c-1.079,0 -3.166,0.1078 -3.49,0.1078c-0.216,0 -2.3388,-0.1078 -3.9583,-0.1078c-0.3957,0 -0.5757,0.0719 -0.5757,0.288c0,0.1443 0.1441,0.2162 0.2878,0.2162c0.3238,0 0.9359,0.036 1.2234,0.1079c1.1879,0.2521 1.4757,0.8282 1.5476,2.0524c0.0719,1.1523 0.0719,2.1603 0.0719,7.7775l0,6.3371z" clip-rule="evenodd" fill-rule="evenodd"> 
    </path>
    <path id="svg_5" fill="#454545" d="m159.069,31.0828c0,3.4455 0,6.2809 -0.18,7.7882c-0.143,1.0406 -0.323,1.8302 -1.04,1.9736c-0.322,0.0717 -0.753,0.1438 -1.076,0.1438c-0.215,0 -0.287,0.1075 -0.287,0.215c0,0.2159 0.18,0.2875 0.574,0.2875c1.076,0 3.335,-0.1079 3.443,-0.1079c0.179,0 2.439,0.1079 4.412,0.1079c0.394,0 0.573,-0.1079 0.573,-0.2875c0,-0.1075 -0.071,-0.215 -0.286,-0.215c-0.324,0 -1.112,-0.0721 -1.614,-0.1438c-1.077,-0.1434 -1.291,-0.933 -1.399,-1.9736c-0.179,-1.5073 -0.179,-4.3427 -0.179,-7.7882l0,-14.7499c0,-0.3592 0.071,-0.6101 0.287,-0.6818c0.322,-0.1437 0.932,-0.2154 1.542,-0.2154c0.825,0 3.012,-0.1438 4.913,1.7944c1.901,1.9378 2.008,4.3423 2.008,5.5266c0,3.3021 -2.725,5.85 -6.204,5.85c-0.753,0 -0.968,0.0358 -0.968,0.3229c0,0.1796 0.215,0.2513 0.394,0.2513c0.179,0.0359 0.574,0.0358 0.753,0.0358c5.093,0 8.823,-3.445 8.823,-8.5416c0,-1.9019 -1.004,-3.5167 -1.793,-4.2705c-0.574,-0.5384 -2.188,-2.0457 -6.671,-2.0457c-1.65,0 -3.73,0.1075 -4.519,0.1075c-0.287,0 -2.439,-0.1075 -4.053,-0.1075c-0.394,0 -0.574,0.0716 -0.574,0.2871c0,0.1438 0.144,0.2154 0.287,0.2154c0.323,0 0.933,0.0359 1.22,0.1076c1.183,0.2512 1.47,0.8255 1.542,2.0456c0.072,1.1485 0.072,2.1533 0.072,7.752l0,6.3162z" clip-rule="evenodd" fill-rule="evenodd"> 
    </path>
    <path id="svg_6" fill="#454545" d="m126.236,29.8549c0,5.1447 1.338,7.611 3.064,9.2673c2.5,2.3608 6.057,2.5015 7.254,2.5015c2.077,0 4.718,-0.3523 7.254,-2.6075c2.816,-2.5016 3.239,-6.7301 3.239,-10.5356l0,-3.7704c0,-5.4969 0,-6.4834 0.07,-7.611c0.071,-1.2332 0.353,-1.797 1.303,-2.0085c0.423,-0.0704 0.634,-0.1056 0.881,-0.1056c0.141,0 0.282,-0.0704 0.282,-0.2115c0,-0.2115 -0.177,-0.2819 -0.564,-0.2819c-1.056,0 -2.711,0.1055 -2.958,0.1055c-0.211,0 -2.148,-0.1055 -3.732,-0.1055c-0.388,0 -0.564,0.0704 -0.564,0.2819c0,0.1411 0.141,0.2115 0.282,0.2115c0.317,0 0.915,0.0352 1.197,0.1056c1.162,0.2467 1.444,0.8105 1.514,2.0085c0.071,1.1276 0.071,2.1141 0.071,7.611l0,4.4045c0,3.6296 -0.423,6.6246 -2.043,8.6331c-1.267,1.5151 -3.38,2.5372 -5.528,2.5372c-2.007,0 -3.592,-0.3171 -5.317,-1.9382c-1.515,-1.4447 -2.641,-3.6292 -2.641,-8.7034l0,-4.9332c0,-5.4969 0,-6.4834 0.07,-7.611c0.071,-1.2332 0.352,-1.8674 1.303,-2.0085c0.423,-0.0704 0.634,-0.1056 0.881,-0.1056c0.14,0 0.281,-0.0704 0.281,-0.2115c0,-0.2115 -0.176,-0.2819 -0.563,-0.2819c-1.057,0 -3.169,0.1055 -3.486,0.1055c-0.317,0 -2.465,-0.1055 -4.05,-0.1055c-0.387,0 -0.563,0.0704 -0.563,0.2819c0,0.1411 0.14,0.2115 0.282,0.2115c0.316,0 0.915,0.0352 1.197,0.1056c1.162,0.2467 1.443,0.8105 1.514,2.0085c0.07,1.1276 0.07,2.1141 0.07,7.611l0,5.1447z" clip-rule="evenodd" fill-rule="evenodd"> 
    </path>
    <path id="svg_7" fill="#454545" d="m255.581,41.6237c1.867,0 3.735,-0.4151 5.222,-1.4534c2.386,-1.6958 2.939,-4.3259 2.939,-5.7448c0,-2.7687 -0.968,-4.9141 -5.049,-8.1325l-0.968,-0.7615c-3.32,-2.5955 -4.219,-3.8416 -4.219,-5.8138c0,-2.5264 1.867,-4.0144 4.254,-4.0144c3.181,0 4.115,1.4534 4.323,1.834c0.207,0.3805 0.414,1.3152 0.449,1.7303c0.034,0.2769 0.069,0.4501 0.277,0.4501c0.173,0 0.242,-0.2423 0.242,-0.7961c0,-2.3532 0.138,-3.4952 0.138,-3.6684c0,-0.1732 -0.069,-0.2423 -0.346,-0.2423c-0.277,0 -0.553,-0.0346 -1.21,-0.1732c-0.865,-0.2074 -1.868,-0.346 -3.216,-0.346c-4.393,0 -7.159,2.5264 -7.159,6.2294c0,2.3532 0.83,4.499 4.496,7.51l1.556,1.2803c2.974,2.4573 3.977,3.8412 3.977,6.2293c0,2.2146 -1.625,4.6028 -4.946,4.6028c-2.317,0 -4.599,-0.9689 -5.118,-3.5298c-0.104,-0.4846 -0.104,-0.9693 -0.104,-1.2807c0,-0.2769 -0.034,-0.3805 -0.242,-0.3805c-0.173,0 -0.242,0.1727 -0.277,0.5533c-0.034,0.5537 -0.172,1.9385 -0.172,3.6688c0,0.9343 0.034,1.0725 0.518,1.3149c1.419,0.6919 3.009,0.9342 4.635,0.9342z" clip-rule="evenodd" fill-rule="evenodd"> 
    </path>
    <path id="svg_8" fill="#454545" d="m185.668,24.8994c0,-5.5987 0,-6.6034 0.072,-7.7519c0.072,-1.256 0.359,-1.8661 1.327,-2.0457c0.431,-0.0717 0.646,-0.1075 0.897,-0.1075c0.143,0 0.287,-0.0717 0.287,-0.2155c0,-0.2154 -0.179,-0.2871 -0.574,-0.2871c-1.076,0 -3.336,0.1075 -3.515,0.1075c-0.179,0 -2.439,-0.1075 -3.622,-0.1075c-0.395,0 -0.574,0.0717 -0.574,0.2871c0,0.1438 0.143,0.2155 0.287,0.2155c0.251,0 0.717,0.0358 1.112,0.1433c0.789,0.1796 1.147,0.7897 1.219,2.0099c0.072,1.1485 0.072,2.1532 0.072,7.7519l0,6.3163c0,3.4454 0,6.2808 -0.179,7.7881c-0.144,1.0406 -0.323,1.8303 -1.041,1.9736c-0.322,0.0717 -0.753,0.1438 -1.076,0.1438c-0.215,0 -0.287,0.1075 -0.287,0.215c0,0.2159 0.18,0.2875 0.574,0.2875c1.076,0 3.336,-0.1079 3.515,-0.1079c0.179,0 2.439,0.1079 4.411,0.1079c0.395,0 0.574,-0.1079 0.574,-0.2875c0,-0.1075 -0.071,-0.215 -0.287,-0.215c-0.322,0 -1.112,-0.0721 -1.613,-0.1438c-1.077,-0.1433 -1.292,-0.933 -1.399,-1.9736c-0.18,-1.5073 -0.18,-4.3427 -0.18,-7.7881l0,-6.3163z" clip-rule="evenodd" fill-rule="evenodd"> 
    </path>
    <path id="svg_9" fill="#454545" d="m201.977,31.2937c0,3.3523 0,6.1109 -0.174,7.5774c-0.14,1.0124 -0.314,1.7807 -1.012,1.9202c-0.314,0.0697 -0.733,0.1399 -1.047,0.1399c-0.209,0 -0.279,0.1046 -0.279,0.2092c0,0.21 0.175,0.2797 0.558,0.2797c0.524,0 1.326,-0.0697 2.024,-0.0697c0.733,-0.0353 1.326,-0.0353 1.396,-0.0353c0.14,0 1.117,0.0353 2.129,0.105c1.011,0.0349 2.128,0.1046 2.512,0.1046c5.967,0 8.898,-3.876 8.898,-7.6118c0,-4.0856 -3.455,-6.5645 -6.037,-7.3677c1.64,-1.711 3.28,-3.422 3.28,-6.2852c0,-1.7459 -1.256,-5.2375 -6.979,-5.2375c-1.605,0 -2.966,0.1045 -3.803,0.1045c-0.175,0 -2.373,-0.1045 -3.943,-0.1045c-0.384,0 -0.559,0.0697 -0.559,0.2793c0,0.1399 0.14,0.2096 0.28,0.2096c0.314,0 0.907,0.0349 1.186,0.1046c1.152,0.2445 1.431,0.8032 1.501,1.9903c0.069,1.1174 0.069,2.095 0.069,7.5421l0,6.1453zm2.792,-14.7346c0,-0.2096 0.105,-0.3146 0.419,-0.3844c0.558,-0.1394 1.291,-0.1743 1.675,-0.1743c3.419,0 4.71,3.1073 4.71,6.0054c0,1.4316 -0.523,2.6889 -1.256,3.5266c-0.733,0.838 -1.221,0.9082 -3.175,0.9082c-1.291,0 -1.92,-0.105 -2.129,-0.1399c-0.174,-0.0697 -0.244,-0.1395 -0.244,-0.384l0,-9.3576zm0,11.0686c0,-0.1747 0.07,-0.2445 0.209,-0.2445c0.524,0 2.268,0 2.722,0.0698c0.838,0.1046 1.71,0.2096 2.896,1.0128c2.687,1.8504 3.385,4.8884 3.385,6.9834c0,3.9453 -3.036,4.9581 -4.92,4.9581c-0.628,0 -2.129,-0.0697 -3.071,-0.5238c-1.082,-0.5234 -1.082,-1.0124 -1.186,-2.7234c-0.035,-0.5238 -0.035,-4.8536 -0.035,-7.5421l0,-1.9903z" clip-rule="evenodd" fill-rule="evenodd"> 
    </path>
    <path id="svg_10" fill="#454545" d="m223.938,37.7475c-0.634,1.7618 -1.338,3.1009 -2.958,3.312c-0.282,0.0356 -0.775,0.0708 -1.021,0.0708c-0.176,0 -0.317,0.0704 -0.317,0.2111c0,0.212 0.211,0.2823 0.669,0.2823c1.655,0 3.591,-0.1059 3.979,-0.1059c0.387,0 1.901,0.1059 2.746,0.1059c0.317,0 0.529,-0.0703 0.529,-0.2823c0,-0.1407 -0.106,-0.2111 -0.352,-0.2111l-0.353,0c-0.598,0 -1.338,-0.3171 -1.338,-1.022c0,-0.6342 0.176,-1.4799 0.493,-2.3608l2.113,-6.2366c0.07,-0.1763 0.176,-0.2819 0.352,-0.2819l7.571,0c0.176,0 0.246,0.0704 0.317,0.2115l3.274,8.6678c0.212,0.5638 0,0.8808 -0.211,0.9512c-0.141,0.0356 -0.246,0.106 -0.246,0.2471c0,0.2112 0.387,0.2112 1.056,0.2468c2.43,0.0703 5,0.0703 5.528,0.0703c0.388,0 0.705,-0.0703 0.705,-0.2823c0,-0.1759 -0.141,-0.2111 -0.353,-0.2111c-0.352,0 -0.88,-0.0352 -1.408,-0.2115c-0.74,-0.2115 -1.76,-0.7753 -3.028,-3.911c-2.148,-5.3561 -7.677,-19.9086 -8.205,-21.2474c-0.423,-1.0924 -0.563,-1.2687 -0.775,-1.2687c-0.211,0 -0.352,0.2115 -0.774,1.3743l-7.993,21.8815zm4.929,-7.7868c-0.105,0 -0.175,-0.0708 -0.105,-0.2468l3.098,-9.5138c0.177,-0.5286 0.353,-0.5286 0.529,0l3.345,9.5138c0.035,0.1408 0.035,0.2468 -0.141,0.2468l-6.726,0z" clip-rule="evenodd" fill-rule="evenodd"> 
    </path>
</svg>
