<svg width="198" height="41" viewBox="0 0 198 41" fill="none" xmlns="http://www.w3.org/2000/svg">
<path fill-rule="evenodd" clip-rule="evenodd" d="M44.1492 20.378C44.1492 24.4409 44.1492 27.7845 43.9325 29.562C43.7591 30.7894 43.5424 31.7206 42.6757 31.8898C42.2856 31.9745 41.7657 32.0592 41.3756 32.0592C41.1156 32.0592 41.0289 32.1861 41.0289 32.3131C41.0289 32.567 41.2456 32.6517 41.7223 32.6517C43.0224 32.6517 45.7526 32.5247 45.8826 32.5247C46.0993 32.5247 48.8295 32.6517 51.213 32.6517C51.6897 32.6517 51.9064 32.5247 51.9064 32.3131C51.9064 32.1861 51.8197 32.0592 51.5597 32.0592C51.1697 32.0592 50.2162 31.9745 49.6096 31.8898C48.3094 31.7206 48.0494 30.7894 47.9194 29.562C47.7027 27.7845 47.7027 24.4409 47.7027 20.378V2.98306C47.7027 2.55981 47.7894 2.26361 48.0494 2.17894C48.4395 2.0096 49.1762 1.92503 49.9129 1.92503C50.9096 1.92503 53.5531 1.75569 55.85 4.04119C58.1469 6.32659 58.2769 9.16229 58.2769 10.5589C58.2769 14.4526 54.9833 17.4576 50.7796 17.4576C49.8696 17.4576 49.6096 17.5 49.6096 17.8386C49.6096 18.0502 49.8696 18.1348 50.0863 18.1348C50.303 18.1771 50.7796 18.1771 50.9963 18.1771C57.1501 18.1771 61.6571 14.1141 61.6571 8.10416C61.6571 5.86105 60.4437 3.95652 59.4903 3.06773C58.7969 2.43285 56.8467 0.655273 51.4297 0.655273C49.4362 0.655273 46.9227 0.78223 45.9693 0.78223C45.6226 0.78223 43.0224 0.655273 41.0723 0.655273C40.5956 0.655273 40.3789 0.739944 40.3789 0.993856C40.3789 1.1632 40.5522 1.24777 40.7256 1.24777C41.1156 1.24777 41.8524 1.29015 42.199 1.37482C43.6291 1.67102 43.9758 2.34818 44.0625 3.78718C44.1492 5.1415 44.1492 6.32659 44.1492 12.9291V20.378Z" fill="white"/>
<path fill-rule="evenodd" clip-rule="evenodd" d="M2.8623 14.344C2.8623 14.2468 2.86363 14.1509 2.86476 14.0546C11.0278 16.3543 20.3402 11.036 29.0779 14.0546C29.1336 14.7181 29.1631 15.4029 29.1631 16.1104C29.1631 28.9606 20.9551 31.257 16.9837 31.257C9.0403 31.257 2.8623 24.6331 2.8623 14.344Z" fill="#00A0E3"/>
<path fill-rule="evenodd" clip-rule="evenodd" d="M29.4086 34.6482C36.0626 38.3062 41.361 40.1557 46.3309 40.1557C52.4099 40.1557 57.01 38.3884 59.3512 37.3198C59.5977 37.1965 59.6798 37.0731 59.6798 36.9087C59.6798 36.7854 59.5977 36.6621 59.4334 36.6621C59.3102 36.6621 59.1048 36.7443 58.8583 36.8265C56.0243 37.9774 52.8205 38.4295 50.7668 38.4295C48.7132 38.4295 42.47 38.2239 33.4749 33.5795L25.0549 29.2229C27.7657 27.4554 32.3249 22.6467 32.3249 15.4129C32.3249 5.8774 25.4245 0 16.1829 0C4.84667 0 0 9.41212 0 16.0705C0 23.4686 4.68243 32.2232 16.0597 32.2232C18.2367 32.2232 21.0296 31.6067 22.5083 30.8258L29.4086 34.6482ZM3.90206 14.9197C3.90206 5.91856 9.03619 1.39744 15.8955 1.39744C22.3851 1.39744 28.3819 6.69946 28.3819 16.5637C28.3819 28.5241 20.7422 30.6614 17.0455 30.6614C9.65232 30.6614 3.90206 24.4962 3.90206 14.9197Z" fill="white"/>
<path fill-rule="evenodd" clip-rule="evenodd" d="M74.7245 23.3539C74.7245 25.9465 74.7245 28.0801 74.5894 29.2143C74.4816 29.9973 74.3466 30.5915 73.807 30.6993C73.5641 30.7533 73.2401 30.8075 72.9972 30.8075C72.8352 30.8075 72.7813 30.8884 72.7813 30.9693C72.7813 31.1318 72.9164 31.1857 73.2132 31.1857C74.0229 31.1857 75.5881 31.1045 75.804 31.1045C76.0199 31.1045 77.5852 31.1857 78.9076 31.1857C79.2043 31.1857 79.3394 31.1045 79.3394 30.9693C79.3394 30.8884 79.2852 30.8075 79.1235 30.8075C78.8803 30.8075 78.4488 30.7533 78.0709 30.6993C77.2612 30.5915 77.0995 29.9973 77.0183 29.2143C76.8836 28.0801 76.8836 25.9465 76.8836 23.3539V20.7076H77.0183C78.3138 22.3009 84.0352 28.4849 85.2494 29.4842C86.4098 30.4024 87.0848 30.9966 88.515 31.1317C89.1085 31.1857 89.6215 31.1857 90.377 31.1857H91.7533C92.2121 31.1857 92.3471 31.1045 92.3471 30.9693C92.3471 30.8615 92.1851 30.8075 91.9962 30.8075C91.8075 30.8075 91.0247 30.7533 90.3231 30.4563C89.0277 29.9163 88.5689 29.4842 86.302 27.3776C85.1956 26.3516 79.5823 20.5455 78.8803 19.7622C79.4472 19.0871 84.143 14.4963 84.8176 13.8482C86.0322 12.687 86.6257 12.0119 87.7322 11.5258C88.2722 11.2825 88.8387 11.1477 89.2436 11.1477C89.4595 11.1477 89.5134 11.0937 89.5134 10.9586C89.5134 10.8234 89.4056 10.7695 89.1085 10.7695C88.4342 10.7695 86.6527 10.8504 86.518 10.8504C85.8702 10.8504 85.0335 10.7695 84.4939 10.7695C84.305 10.7695 84.1699 10.8234 84.1699 10.9586C84.1699 11.0665 84.278 11.1207 84.4131 11.1747C84.629 11.2556 84.7637 11.4177 84.7637 11.7419C84.7637 12.2007 84.0621 12.9028 83.3063 13.6861C82.3349 14.7394 77.4501 19.7083 76.9914 20.2213H76.8836V18.601C76.8836 14.3882 76.8836 13.6321 76.9375 12.7679C76.9914 11.8228 77.2073 11.3637 77.9359 11.2286C78.2599 11.1747 78.4219 11.1477 78.6105 11.1477C78.7186 11.1477 78.8264 11.0938 78.8264 10.9856C78.8264 10.8235 78.6917 10.7695 78.3946 10.7695C77.5852 10.7695 76.02 10.8504 75.7768 10.8504C75.6151 10.8504 74.0229 10.7695 72.8083 10.7695C72.5115 10.7695 72.3765 10.8235 72.3765 10.9856C72.3765 11.0938 72.4846 11.1477 72.5924 11.1477C72.8352 11.1477 73.2943 11.1747 73.5099 11.2286C74.4008 11.4177 74.6167 11.8498 74.6706 12.7679C74.7245 13.6321 74.7245 14.3882 74.7245 18.601V23.3539Z" fill="white"/>
<path fill-rule="evenodd" clip-rule="evenodd" d="M119.301 23.3125C119.301 25.8966 119.301 28.0232 119.167 29.1536C119.059 29.934 118.925 30.5263 118.387 30.6338C118.145 30.6876 117.822 30.7416 117.58 30.7416C117.418 30.7416 117.364 30.8223 117.364 30.9029C117.364 31.0648 117.499 31.1186 117.795 31.1186C118.602 31.1186 120.296 31.0376 120.377 31.0376C120.512 31.0376 122.206 31.1186 123.686 31.1186C123.982 31.1186 124.116 31.0376 124.116 30.9029C124.116 30.8223 124.062 30.7416 123.901 30.7416C123.659 30.7416 123.067 30.6876 122.69 30.6338C121.883 30.5263 121.722 29.934 121.642 29.1536C121.507 28.0232 121.507 25.8966 121.507 23.3125V12.25C121.507 11.9806 121.561 11.7925 121.722 11.7387C121.964 11.6309 122.421 11.5771 122.879 11.5771C123.497 11.5771 125.138 11.4693 126.564 12.9229C127.989 14.3763 128.07 16.1796 128.07 17.0679C128.07 19.5445 126.026 21.4554 123.417 21.4554C122.852 21.4554 122.69 21.4822 122.69 21.6976C122.69 21.8323 122.852 21.8861 122.986 21.8861C123.121 21.9129 123.417 21.9129 123.551 21.9129C127.371 21.9129 130.168 19.3291 130.168 15.5067C130.168 14.0803 129.415 12.8692 128.823 12.3038C128.393 11.9 127.182 10.7695 123.82 10.7695C122.583 10.7695 121.023 10.8501 120.431 10.8501C120.216 10.8501 118.602 10.7695 117.391 10.7695C117.096 10.7695 116.961 10.8233 116.961 10.9849C116.961 11.0927 117.069 11.1464 117.176 11.1464C117.418 11.1464 117.875 11.1733 118.091 11.2271C118.978 11.4155 119.193 11.8462 119.248 12.7614C119.301 13.6227 119.301 14.3763 119.301 18.5753V23.3125Z" fill="white"/>
<path fill-rule="evenodd" clip-rule="evenodd" d="M94.6774 22.3915C94.6774 26.25 95.681 28.0998 96.9751 29.342C98.85 31.1126 101.518 31.2182 102.416 31.2182C103.974 31.2182 105.954 30.9539 107.856 29.2625C109.969 27.3864 110.286 24.2149 110.286 21.3608V18.5331C110.286 14.4103 110.286 13.6705 110.338 12.8248C110.391 11.8999 110.602 11.477 111.315 11.3184C111.632 11.2656 111.791 11.2392 111.976 11.2392C112.081 11.2392 112.187 11.1864 112.187 11.0806C112.187 10.9219 112.055 10.8691 111.765 10.8691C110.972 10.8691 109.731 10.9483 109.546 10.9483C109.388 10.9483 107.935 10.8691 106.747 10.8691C106.456 10.8691 106.324 10.9219 106.324 11.0806C106.324 11.1864 106.43 11.2392 106.536 11.2392C106.773 11.2392 107.222 11.2656 107.433 11.3184C108.305 11.5034 108.516 11.9263 108.569 12.8248C108.622 13.6705 108.622 14.4103 108.622 18.5331V21.8364C108.622 24.5586 108.305 26.8048 107.09 28.3112C106.139 29.4476 104.555 30.2141 102.944 30.2141C101.438 30.2141 100.25 29.9763 98.9558 28.7605C97.82 27.6769 96.9751 26.0386 96.9751 22.2329V18.5331C96.9751 14.4103 96.9751 13.6705 97.0279 12.8248C97.0806 11.8999 97.2919 11.4242 98.0049 11.3184C98.322 11.2656 98.4805 11.2392 98.6654 11.2392C98.7709 11.2392 98.8767 11.1864 98.8767 11.0806C98.8767 10.9219 98.7446 10.8691 98.4542 10.8691C97.6618 10.8691 96.0772 10.9483 95.8396 10.9483C95.6016 10.9483 93.9907 10.8691 92.8025 10.8691C92.5117 10.8691 92.3799 10.9219 92.3799 11.0806C92.3799 11.1864 92.4854 11.2392 92.5912 11.2392C92.8288 11.2392 93.2778 11.2656 93.4891 11.3184C94.3606 11.5034 94.5719 11.9263 94.6246 12.8248C94.6774 13.6705 94.6774 14.4103 94.6774 18.5331V22.3915Z" fill="white"/>
<path fill-rule="evenodd" clip-rule="evenodd" d="M191.686 31.2182C193.086 31.2182 194.487 30.9068 195.602 30.1281C197.392 28.8562 197.807 26.8837 197.807 25.8195C197.807 23.743 197.081 22.1339 194.02 19.7201L193.294 19.149C190.804 17.2024 190.129 16.2678 190.129 14.7886C190.129 12.8938 191.53 11.7778 193.32 11.7778C195.706 11.7778 196.406 12.8679 196.562 13.1533C196.717 13.4387 196.873 14.1397 196.899 14.4511C196.925 14.6587 196.951 14.7886 197.106 14.7886C197.236 14.7886 197.288 14.6069 197.288 14.1916C197.288 12.4267 197.392 11.5702 197.392 11.4403C197.392 11.3104 197.34 11.2585 197.132 11.2585C196.925 11.2585 196.717 11.2326 196.225 11.1286C195.576 10.9731 194.824 10.8691 193.812 10.8691C190.518 10.8691 188.443 12.7639 188.443 15.5412C188.443 17.3061 189.066 18.9154 191.815 21.1737L192.982 22.1339C195.213 23.9769 195.965 25.0148 195.965 26.8059C195.965 28.4668 194.746 30.258 192.256 30.258C190.518 30.258 188.806 29.5313 188.417 27.6106C188.339 27.2472 188.339 26.8837 188.339 26.6501C188.339 26.4425 188.314 26.3647 188.158 26.3647C188.028 26.3647 187.977 26.4943 187.95 26.7797C187.924 27.195 187.821 28.2336 187.821 29.5313C187.821 30.232 187.847 30.3357 188.21 30.5175C189.273 31.0364 190.466 31.2182 191.686 31.2182Z" fill="white"/>
<path fill-rule="evenodd" clip-rule="evenodd" d="M139.251 18.6749C139.251 14.4759 139.251 13.7223 139.305 12.861C139.359 11.919 139.574 11.4614 140.301 11.3267C140.623 11.2729 140.785 11.2461 140.973 11.2461C141.081 11.2461 141.188 11.1923 141.188 11.0845C141.188 10.9229 141.054 10.8691 140.758 10.8691C139.951 10.8691 138.256 10.9497 138.122 10.9497C137.987 10.9497 136.293 10.8691 135.405 10.8691C135.109 10.8691 134.975 10.9229 134.975 11.0845C134.975 11.1923 135.082 11.2461 135.19 11.2461C135.378 11.2461 135.728 11.2729 136.024 11.3536C136.616 11.4883 136.885 11.9458 136.938 12.861C136.992 13.7223 136.992 14.4759 136.992 18.6749V23.4121C136.992 25.9962 136.992 28.1228 136.858 29.2532C136.75 30.0337 136.616 30.6259 136.077 30.7334C135.835 30.7872 135.513 30.8413 135.27 30.8413C135.109 30.8413 135.055 30.9219 135.055 31.0025C135.055 31.1644 135.19 31.2182 135.486 31.2182C136.293 31.2182 137.987 31.1372 138.122 31.1372C138.256 31.1372 139.951 31.2182 141.43 31.2182C141.726 31.2182 141.861 31.1372 141.861 31.0025C141.861 30.9219 141.807 30.8413 141.645 30.8413C141.403 30.8413 140.812 30.7872 140.435 30.7334C139.628 30.6259 139.467 30.0337 139.386 29.2532C139.251 28.1228 139.251 25.9962 139.251 23.4121V18.6749Z" fill="white"/>
<path fill-rule="evenodd" clip-rule="evenodd" d="M151.483 23.4701C151.483 25.9842 151.483 28.0532 151.352 29.1531C151.248 29.9124 151.117 30.4886 150.593 30.5932C150.358 30.6455 150.044 30.6981 149.808 30.6981C149.651 30.6981 149.599 30.7766 149.599 30.855C149.599 31.0126 149.73 31.0648 150.017 31.0648C150.41 31.0648 151.012 31.0125 151.535 31.0125C152.085 30.9861 152.53 30.9861 152.582 30.9861C152.687 30.9861 153.42 31.0125 154.179 31.0648C154.938 31.091 155.775 31.1433 156.063 31.1433C160.538 31.1433 162.736 28.2363 162.736 25.4345C162.736 22.3702 160.145 20.511 158.209 19.9086C159.439 18.6254 160.669 17.3422 160.669 15.1947C160.669 13.8854 159.727 11.2666 155.435 11.2666C154.231 11.2666 153.21 11.345 152.582 11.345C152.451 11.345 150.803 11.2666 149.625 11.2666C149.337 11.2666 149.206 11.3189 149.206 11.4761C149.206 11.581 149.311 11.6333 149.415 11.6333C149.651 11.6333 150.096 11.6595 150.305 11.7118C151.169 11.8951 151.378 12.3142 151.431 13.2045C151.483 14.0426 151.483 14.7757 151.483 18.8611V23.4701ZM153.577 12.4191C153.577 12.2618 153.655 12.1831 153.891 12.1308C154.309 12.0262 154.859 12 155.147 12C157.712 12 158.68 14.3305 158.68 16.5041C158.68 17.5778 158.288 18.5208 157.738 19.149C157.188 19.7776 156.822 19.8302 155.356 19.8302C154.388 19.8302 153.917 19.7514 153.76 19.7253C153.629 19.673 153.577 19.6207 153.577 19.4373V12.4191ZM153.577 20.7205C153.577 20.5895 153.629 20.5372 153.734 20.5372C154.126 20.5372 155.435 20.5372 155.775 20.5895C156.403 20.6679 157.057 20.7467 157.947 21.3491C159.962 22.7369 160.486 25.0154 160.486 26.5866C160.486 29.5457 158.209 30.3053 156.796 30.3053C156.324 30.3053 155.199 30.253 154.493 29.9124C153.681 29.5198 153.681 29.1531 153.603 27.8699C153.577 27.477 153.577 24.2297 153.577 22.2133V20.7205Z" fill="white"/>
<path fill-rule="evenodd" clip-rule="evenodd" d="M167.953 28.311C167.478 29.6323 166.95 30.6367 165.735 30.795C165.524 30.8217 165.154 30.8481 164.969 30.8481C164.837 30.8481 164.731 30.9009 164.731 31.0064C164.731 31.1654 164.89 31.2182 165.233 31.2182C166.475 31.2182 167.927 31.1387 168.217 31.1387C168.508 31.1387 169.644 31.2182 170.278 31.2182C170.515 31.2182 170.674 31.1654 170.674 31.0064C170.674 30.9009 170.594 30.8481 170.41 30.8481H170.145C169.696 30.8481 169.142 30.6103 169.142 30.0816C169.142 29.6059 169.274 28.9717 169.512 28.311L171.096 23.6335C171.149 23.5013 171.228 23.4221 171.36 23.4221H177.038C177.171 23.4221 177.223 23.4749 177.276 23.5808L179.732 30.0816C179.891 30.5044 179.732 30.7422 179.574 30.795C179.468 30.8217 179.389 30.8745 179.389 30.9803C179.389 31.1387 179.679 31.1387 180.181 31.1654C182.003 31.2182 183.931 31.2182 184.327 31.2182C184.618 31.2182 184.856 31.1654 184.856 31.0064C184.856 30.8745 184.75 30.8481 184.591 30.8481C184.327 30.8481 183.931 30.8217 183.535 30.6895C182.98 30.5308 182.215 30.108 181.264 27.7562C179.653 23.7391 175.507 12.8247 175.11 11.8207C174.793 11.0014 174.688 10.8691 174.529 10.8691C174.371 10.8691 174.265 11.0278 173.949 11.8999L167.953 28.311ZM171.651 22.4709C171.572 22.4709 171.519 22.4178 171.572 22.2858L173.895 15.1504C174.028 14.754 174.16 14.754 174.292 15.1504L176.801 22.2858C176.827 22.3914 176.827 22.4709 176.695 22.4709H171.651Z" fill="white"/>
</svg>
