<?xml version="1.0" encoding="UTF-8"?>
<!DOCTYPE svg PUBLIC "-//W3C//DTD SVG 1.1//EN" "http://www.w3.org/Graphics/SVG/1.1/DTD/svg11.dtd">
<!-- Creator: CorelDRAW 2020 (64-Bit) -->
<svg xmlns="http://www.w3.org/2000/svg" xml:space="preserve" width="20mm" height="20mm" version="1.1" style="shape-rendering:geometricPrecision; text-rendering:geometricPrecision; image-rendering:optimizeQuality; fill-rule:evenodd; clip-rule:evenodd"
viewBox="0 0 2000 2000"
 xmlns:xlink="http://www.w3.org/1999/xlink"
 xmlns:xodm="http://www.corel.com/coreldraw/odm/2003">
 <defs>
  <style type="text/css">
   <![CDATA[
    .fil0 {fill:white}
   ]]>
  </style>
 </defs>
 <g id="Слой_x0020_1">
  <metadata id="CorelCorpID_0Corel-Layer"/>
  <g id="_3192504334752">
   <path class="fil0" d="M700.36 698.05c0.98,3.42 6.61,2.82 10.9,3.49 11.39,1.8 22.53,5.41 32.84,10.79 45.12,23.54 47.44,74.38 49.95,124.21 2.39,47.27 5.58,170.04 -18.2,209.08 -20.41,33.5 -50.89,17.26 -73,-5.53 -36.36,-37.46 -68.48,-90.11 -95.24,-135.98l-41.07 -74.54c-7.1,-13.1 -11.87,-24.51 -19.07,-39.15 -6.48,-13.16 -11.54,-26.66 -18.2,-40.26 -14.95,-30.52 -14.79,-53.71 -48.64,-67.02 -18.84,-7.41 -29.71,-5.78 -52.38,-5.49l-171.87 1.08c-58.29,0.22 -74.87,19.72 -48.43,71.92l18.29 40c22.8,50.87 76.43,156.61 107.34,210.45l42.65 73.94c7.06,11.76 14.6,24.36 21.73,35.62l45.71 69.99c7.4,11.65 16.05,23.07 24.07,34.16 13.6,18.8 28.63,39.43 43.55,57.49l20.02 23.72c2.19,2.44 4.37,4.53 7,7.57 2.32,2.69 4.05,5.29 6.64,7.97 15.17,15.74 40.99,44.34 58.26,57.38 3.34,2.52 5.46,4.69 7.77,6.8l24.44 19.23c33.93,25.82 70.13,46.55 109,64.09 49.98,22.56 123.5,43.74 189.04,43.25 19.44,-0.14 38.89,-0.08 58.33,-0.08 19.07,0 36.12,1.1 53.83,-3.46 40.85,-10.5 36.16,-42.11 39.07,-76.75 3.33,-39.84 13.06,-106.12 55.59,-118.24 37.25,-10.62 79.16,44.57 102.72,69.1 4.39,4.58 8.78,10.53 13.56,15.59 9.58,10.15 17.79,21.18 27.38,30.96 4.36,4.46 9.48,9.93 13.78,14.35 47.66,48.92 86.56,75.16 160.62,71.28 36.55,-1.91 76.56,-1.86 113.66,-1.86 19.37,0 37.8,-0.49 57.29,-0.77 22.01,-0.32 32.29,-1.32 49.77,-7.45 14.66,-5.15 26.9,-12.27 33.18,-25.45 8.07,-16.94 2.14,-32.24 -4.45,-46.81l-10.39 -18.76c-17.55,-31.07 -63.17,-85.17 -90.62,-111.53 -24.89,-23.91 -48.22,-48.47 -73.54,-71.26 -21.06,-18.97 -59.78,-52.15 -65.34,-80.77 -6.28,-32.38 16.56,-59.34 32.47,-82.74l24.52 -32.78c21.98,-26.62 41.41,-54.94 62.87,-81.9 12.55,-15.76 25.46,-35.02 36.64,-49.84 22.6,-29.96 108.43,-152.63 88.02,-194.96 -12.64,-26.2 -70.11,-19.22 -94.59,-19.08l-172.91 1.37c-65.2,-0.01 -71.66,-9.24 -95.86,48.64l-35.25 80.63c-20.99,45.05 -46.23,88.56 -73.11,129.94 -24.25,37.33 -70.97,107.94 -107.8,121.4 -8.18,2.99 -16.86,2.32 -23.33,-2.69 -19,-14.7 -23.05,-38.24 -26.55,-61.2 -5.03,-33.03 1.51,-190.27 3.1,-224.17 1.59,-33.76 2.09,-78.99 -14.69,-100.42 -9.61,-12.27 -20.32,-17.85 -36.74,-21.89 -15.63,-3.86 -30.6,-7.44 -48.13,-8.63 -37.33,-2.51 -75.03,-2.76 -113.52,-2.6 -45.4,0.19 -88.29,1.2 -128.6,16.31 -13.82,5.19 -47.76,29.38 -44.08,42.26z"/>
   <path class="fil0" d="M57 1001.17c0.08,-140.73 35.09,-273.21 84.05,-380.87 48.05,-105.67 114.73,-198.07 189.95,-273.67 100.02,-100.52 217.21,-173.48 357.51,-223.54 28.5,-10.17 59.55,-17.65 89.76,-25.86 15.08,-4.09 32.94,-6.69 48.45,-9.95 16.6,-3.5 33.76,-4.39 50.27,-7.36 24.71,-4.45 82.71,-7.29 108.55,-7.29 43.42,0 80.39,1.53 122.82,6.99 62.46,8.04 130.82,23.87 189.16,44.03 22.91,7.91 62.04,22.68 83.33,33.3 28.38,14.16 50.88,24.89 76.91,39.68 79.57,45.21 164.54,112.83 225.85,181.44 4.4,4.91 8.84,10.29 13.72,15.49 16.12,17.18 51.12,62.92 63.94,81.95 60.76,90.25 100.45,170.83 130.81,276.34l11.98 46.29c2.69,15.97 6.53,32.42 9.79,48.36 8.59,41.99 13.84,119.07 13.79,160.92 -0.35,285.95 -123.68,510.3 -273.97,661.88 -149.79,151.07 -379.76,273.6 -662.92,273.97 -63.9,0.08 -149.36,-8.47 -209.33,-24.11 -31.11,-8.11 -61.06,-14.38 -91.25,-25.79 -67.55,-25.53 -93.76,-34.68 -160.63,-72.61 -169.27,-96.01 -308.83,-247.93 -388.82,-425.82 -52.58,-116.91 -83.8,-242.11 -83.72,-393.77zm881.05 1005.21l106.54 0c3.21,-1.92 9.9,-1.53 13.89,-1.66 4.34,-0.14 8.9,-0.31 13.32,-0.79 36.04,-3.94 67.8,-6.69 103.57,-13.94 8.49,-1.72 16.69,-3.13 25.48,-4.88 14.87,-2.98 33.29,-7.43 47.42,-11.6l46.43 -13.25c15.1,-5.05 51.39,-16.95 65.34,-23.14 61.04,-27.09 74.72,-31.25 139.07,-68.27 220.62,-126.94 397.01,-357.98 459.56,-606.94 4.09,-16.29 8.23,-32.16 11.26,-48.22 3.05,-16.09 5.92,-34.32 9.39,-49.72 3.62,-16.09 8.92,-74.07 9.91,-93.19l0.55 -11.24c0.05,-0.33 0.1,-0.59 0.16,-0.9l0.81 -2.36 0 -103.59c-0.61,-0.97 -0.57,-0.75 -1.06,-2.65 -0.29,-1.13 -0.34,-1.86 -0.45,-3.02 -0.15,-1.71 -0.11,-4.09 -0.2,-5.91l-2.51 -31.56c-1.73,-18.1 -7.6,-64.15 -11.11,-80.83 -5.16,-24.47 -10.03,-50.01 -16.78,-74.7 -15.68,-57.32 -24.31,-81.93 -47,-137.18 -29.34,-71.43 -72.41,-143.24 -117.05,-203.94 -120.05,-163.22 -307.07,-301.01 -512.65,-361.16 -12.62,-3.7 -23.56,-6.51 -35.89,-10.03l-55.31 -13.12c-7.68,-1.05 -12.81,-1.78 -19.89,-3.46 -11.45,-2.71 -69.51,-10.42 -80.15,-11.36 -215.16,-19.09 -415.68,24.63 -597.86,129.05 -151.32,86.72 -279.6,216.31 -367.17,368.37 -23.47,40.74 -58.7,112.85 -72.9,157.42 -3.43,10.77 -8.05,21.73 -11.65,34.07 -9.33,32.03 -17.68,56.82 -24.54,90.94 -17.14,85.23 -23.41,138.56 -23.1,228.38 0.11,30.11 2.7,57.09 4.73,86.5 1.92,27.62 7.56,54.61 11.86,80.38 11.46,68.71 37.16,150.45 63.56,211.69 90.03,208.8 242.57,374.87 437.26,482.66 34.12,18.89 88.18,45.11 125.35,58.02 26.08,9.07 39.4,15.27 68.11,23.33 28.7,8.06 80.72,22.25 110.46,26.81 13.19,2.02 27.16,3.52 40.1,6.02 11.62,2.25 29.07,4.23 41.08,4.87l41.22 3.71c0.16,-0.25 0.57,0.23 0.84,0.39z"/>
  </g>
 </g>
</svg>
