<?xml version="1.0" encoding="UTF-8"?>
<!DOCTYPE svg PUBLIC "-//W3C//DTD SVG 1.1//EN" "http://www.w3.org/Graphics/SVG/1.1/DTD/svg11.dtd">
<!-- Creator: CorelDRAW 2020 (64-Bit) -->
<svg xmlns="http://www.w3.org/2000/svg" xml:space="preserve" width="20mm" height="20mm" version="1.1" style="shape-rendering:geometricPrecision; text-rendering:geometricPrecision; image-rendering:optimizeQuality; fill-rule:evenodd; clip-rule:evenodd"
viewBox="0 0 2000 2000"
 xmlns:xlink="http://www.w3.org/1999/xlink"
 xmlns:xodm="http://www.corel.com/coreldraw/odm/2003">
 <defs>
  <style type="text/css">
   <![CDATA[
    .fil0 {fill:white}
   ]]>
  </style>
 </defs>
 <g id="Слой_x0020_1">
  <metadata id="CorelCorpID_0Corel-Layer"/>
  <path class="fil0" d="M1031.01 8.4c526.28,19.83 948.47,446.29 961.38,974.3 -228.13,2.45 -498.52,-10.74 -622.48,-77.44 -235.27,-126.59 -237,-211.5 -293.1,-371.17 -53.93,-153.51 -46.46,-499.22 -45.8,-525.69zm960.61 1045.21c-23.49,518.62 -441.99,934.25 -961.78,953.23 -0.81,-65.57 1.6,-157.86 12.2,-281.91 25.56,-299.11 64.84,-395.42 242.46,-550.43 177.23,-154.67 704.79,-121.04 707.12,-120.89zm-1020.01 953.72c-529.27,-10.96 -957.39,-433.09 -978.04,-959.9l49.66 -1.06c248.25,-5.32 429.67,34.43 561.41,69.58 131.74,35.15 246.47,154.02 305.34,327.24 58.87,173.22 61.83,563.54 61.83,563.54l-0.2 0.6zm-978.64 -1020.34c10.84,-535.93 443.26,-968.33 979.2,-979.13l-0.08 49.41c-0.28,160.94 -34.91,425.21 -34.91,425.21 0,0 -24.34,243.99 -227.02,383.3 -196.87,135.32 -689.14,122.08 -717.19,121.21z"/>
 </g>
</svg>
